G75*
G70*
%OFA0B0*%
%FSLAX24Y24*%
%IPPOS*%
%LPD*%
%AMOC8*
5,1,8,0,0,1.08239X$1,22.5*
%
%ADD10C,0.0000*%
%ADD11C,0.0060*%
%ADD12C,0.0040*%
%ADD13R,0.0197X0.0374*%
%ADD14R,0.0340X0.0160*%
%ADD15R,0.0180X0.0390*%
%ADD16R,0.0390X0.0180*%
%ADD17C,0.0030*%
%ADD18R,0.0160X0.0340*%
%ADD19R,0.0059X0.0118*%
%ADD20R,0.0118X0.0118*%
%ADD21R,0.0531X0.0236*%
D10*
X000574Y000574D02*
X000574Y019471D01*
X009235Y019471D01*
X009235Y000574D01*
X000574Y000574D01*
X001125Y001755D02*
X001127Y001805D01*
X001133Y001855D01*
X001143Y001904D01*
X001157Y001952D01*
X001174Y001999D01*
X001195Y002044D01*
X001220Y002088D01*
X001248Y002129D01*
X001280Y002168D01*
X001314Y002205D01*
X001351Y002239D01*
X001391Y002269D01*
X001433Y002296D01*
X001477Y002320D01*
X001523Y002341D01*
X001570Y002357D01*
X001618Y002370D01*
X001668Y002379D01*
X001717Y002384D01*
X001768Y002385D01*
X001818Y002382D01*
X001867Y002375D01*
X001916Y002364D01*
X001964Y002349D01*
X002010Y002331D01*
X002055Y002309D01*
X002098Y002283D01*
X002139Y002254D01*
X002178Y002222D01*
X002214Y002187D01*
X002246Y002149D01*
X002276Y002109D01*
X002303Y002066D01*
X002326Y002022D01*
X002345Y001976D01*
X002361Y001928D01*
X002373Y001879D01*
X002381Y001830D01*
X002385Y001780D01*
X002385Y001730D01*
X002381Y001680D01*
X002373Y001631D01*
X002361Y001582D01*
X002345Y001534D01*
X002326Y001488D01*
X002303Y001444D01*
X002276Y001401D01*
X002246Y001361D01*
X002214Y001323D01*
X002178Y001288D01*
X002139Y001256D01*
X002098Y001227D01*
X002055Y001201D01*
X002010Y001179D01*
X001964Y001161D01*
X001916Y001146D01*
X001867Y001135D01*
X001818Y001128D01*
X001768Y001125D01*
X001717Y001126D01*
X001668Y001131D01*
X001618Y001140D01*
X001570Y001153D01*
X001523Y001169D01*
X001477Y001190D01*
X001433Y001214D01*
X001391Y001241D01*
X001351Y001271D01*
X001314Y001305D01*
X001280Y001342D01*
X001248Y001381D01*
X001220Y001422D01*
X001195Y001466D01*
X001174Y001511D01*
X001157Y001558D01*
X001143Y001606D01*
X001133Y001655D01*
X001127Y001705D01*
X001125Y001755D01*
X007424Y001755D02*
X007426Y001805D01*
X007432Y001855D01*
X007442Y001904D01*
X007456Y001952D01*
X007473Y001999D01*
X007494Y002044D01*
X007519Y002088D01*
X007547Y002129D01*
X007579Y002168D01*
X007613Y002205D01*
X007650Y002239D01*
X007690Y002269D01*
X007732Y002296D01*
X007776Y002320D01*
X007822Y002341D01*
X007869Y002357D01*
X007917Y002370D01*
X007967Y002379D01*
X008016Y002384D01*
X008067Y002385D01*
X008117Y002382D01*
X008166Y002375D01*
X008215Y002364D01*
X008263Y002349D01*
X008309Y002331D01*
X008354Y002309D01*
X008397Y002283D01*
X008438Y002254D01*
X008477Y002222D01*
X008513Y002187D01*
X008545Y002149D01*
X008575Y002109D01*
X008602Y002066D01*
X008625Y002022D01*
X008644Y001976D01*
X008660Y001928D01*
X008672Y001879D01*
X008680Y001830D01*
X008684Y001780D01*
X008684Y001730D01*
X008680Y001680D01*
X008672Y001631D01*
X008660Y001582D01*
X008644Y001534D01*
X008625Y001488D01*
X008602Y001444D01*
X008575Y001401D01*
X008545Y001361D01*
X008513Y001323D01*
X008477Y001288D01*
X008438Y001256D01*
X008397Y001227D01*
X008354Y001201D01*
X008309Y001179D01*
X008263Y001161D01*
X008215Y001146D01*
X008166Y001135D01*
X008117Y001128D01*
X008067Y001125D01*
X008016Y001126D01*
X007967Y001131D01*
X007917Y001140D01*
X007869Y001153D01*
X007822Y001169D01*
X007776Y001190D01*
X007732Y001214D01*
X007690Y001241D01*
X007650Y001271D01*
X007613Y001305D01*
X007579Y001342D01*
X007547Y001381D01*
X007519Y001422D01*
X007494Y001466D01*
X007473Y001511D01*
X007456Y001558D01*
X007442Y001606D01*
X007432Y001655D01*
X007426Y001705D01*
X007424Y001755D01*
X007424Y018290D02*
X007426Y018340D01*
X007432Y018390D01*
X007442Y018439D01*
X007456Y018487D01*
X007473Y018534D01*
X007494Y018579D01*
X007519Y018623D01*
X007547Y018664D01*
X007579Y018703D01*
X007613Y018740D01*
X007650Y018774D01*
X007690Y018804D01*
X007732Y018831D01*
X007776Y018855D01*
X007822Y018876D01*
X007869Y018892D01*
X007917Y018905D01*
X007967Y018914D01*
X008016Y018919D01*
X008067Y018920D01*
X008117Y018917D01*
X008166Y018910D01*
X008215Y018899D01*
X008263Y018884D01*
X008309Y018866D01*
X008354Y018844D01*
X008397Y018818D01*
X008438Y018789D01*
X008477Y018757D01*
X008513Y018722D01*
X008545Y018684D01*
X008575Y018644D01*
X008602Y018601D01*
X008625Y018557D01*
X008644Y018511D01*
X008660Y018463D01*
X008672Y018414D01*
X008680Y018365D01*
X008684Y018315D01*
X008684Y018265D01*
X008680Y018215D01*
X008672Y018166D01*
X008660Y018117D01*
X008644Y018069D01*
X008625Y018023D01*
X008602Y017979D01*
X008575Y017936D01*
X008545Y017896D01*
X008513Y017858D01*
X008477Y017823D01*
X008438Y017791D01*
X008397Y017762D01*
X008354Y017736D01*
X008309Y017714D01*
X008263Y017696D01*
X008215Y017681D01*
X008166Y017670D01*
X008117Y017663D01*
X008067Y017660D01*
X008016Y017661D01*
X007967Y017666D01*
X007917Y017675D01*
X007869Y017688D01*
X007822Y017704D01*
X007776Y017725D01*
X007732Y017749D01*
X007690Y017776D01*
X007650Y017806D01*
X007613Y017840D01*
X007579Y017877D01*
X007547Y017916D01*
X007519Y017957D01*
X007494Y018001D01*
X007473Y018046D01*
X007456Y018093D01*
X007442Y018141D01*
X007432Y018190D01*
X007426Y018240D01*
X007424Y018290D01*
X001125Y018290D02*
X001127Y018340D01*
X001133Y018390D01*
X001143Y018439D01*
X001157Y018487D01*
X001174Y018534D01*
X001195Y018579D01*
X001220Y018623D01*
X001248Y018664D01*
X001280Y018703D01*
X001314Y018740D01*
X001351Y018774D01*
X001391Y018804D01*
X001433Y018831D01*
X001477Y018855D01*
X001523Y018876D01*
X001570Y018892D01*
X001618Y018905D01*
X001668Y018914D01*
X001717Y018919D01*
X001768Y018920D01*
X001818Y018917D01*
X001867Y018910D01*
X001916Y018899D01*
X001964Y018884D01*
X002010Y018866D01*
X002055Y018844D01*
X002098Y018818D01*
X002139Y018789D01*
X002178Y018757D01*
X002214Y018722D01*
X002246Y018684D01*
X002276Y018644D01*
X002303Y018601D01*
X002326Y018557D01*
X002345Y018511D01*
X002361Y018463D01*
X002373Y018414D01*
X002381Y018365D01*
X002385Y018315D01*
X002385Y018265D01*
X002381Y018215D01*
X002373Y018166D01*
X002361Y018117D01*
X002345Y018069D01*
X002326Y018023D01*
X002303Y017979D01*
X002276Y017936D01*
X002246Y017896D01*
X002214Y017858D01*
X002178Y017823D01*
X002139Y017791D01*
X002098Y017762D01*
X002055Y017736D01*
X002010Y017714D01*
X001964Y017696D01*
X001916Y017681D01*
X001867Y017670D01*
X001818Y017663D01*
X001768Y017660D01*
X001717Y017661D01*
X001668Y017666D01*
X001618Y017675D01*
X001570Y017688D01*
X001523Y017704D01*
X001477Y017725D01*
X001433Y017749D01*
X001391Y017776D01*
X001351Y017806D01*
X001314Y017840D01*
X001280Y017877D01*
X001248Y017916D01*
X001220Y017957D01*
X001195Y018001D01*
X001174Y018046D01*
X001157Y018093D01*
X001143Y018141D01*
X001133Y018190D01*
X001127Y018240D01*
X001125Y018290D01*
D11*
X003553Y011737D02*
X003893Y011737D01*
X003893Y011457D02*
X003553Y011457D01*
X002289Y007830D02*
X002289Y007490D01*
X002008Y007490D02*
X002008Y007830D01*
X003524Y006284D02*
X003524Y003524D01*
X006145Y003524D01*
X006284Y003664D01*
X006284Y006284D01*
X003524Y006284D01*
X005843Y003824D02*
X005845Y003847D01*
X005851Y003870D01*
X005860Y003891D01*
X005873Y003911D01*
X005889Y003928D01*
X005907Y003942D01*
X005927Y003953D01*
X005949Y003961D01*
X005972Y003965D01*
X005996Y003965D01*
X006019Y003961D01*
X006041Y003953D01*
X006061Y003942D01*
X006079Y003928D01*
X006095Y003911D01*
X006108Y003891D01*
X006117Y003870D01*
X006123Y003847D01*
X006125Y003824D01*
X006123Y003801D01*
X006117Y003778D01*
X006108Y003757D01*
X006095Y003737D01*
X006079Y003720D01*
X006061Y003706D01*
X006041Y003695D01*
X006019Y003687D01*
X005996Y003683D01*
X005972Y003683D01*
X005949Y003687D01*
X005927Y003695D01*
X005907Y003706D01*
X005889Y003720D01*
X005873Y003737D01*
X005860Y003757D01*
X005851Y003778D01*
X005845Y003801D01*
X005843Y003824D01*
X007490Y008308D02*
X007830Y008308D01*
X007830Y008588D02*
X007490Y008588D01*
X008534Y006958D02*
X008478Y006902D01*
X008478Y006788D01*
X008534Y006731D01*
X008591Y006731D01*
X008648Y006788D01*
X008648Y006902D01*
X008591Y006958D01*
X008534Y006958D01*
X008648Y006902D02*
X008705Y006958D01*
X008761Y006958D01*
X008818Y006902D01*
X008818Y006788D01*
X008761Y006731D01*
X008705Y006731D01*
X008648Y006788D01*
X008818Y006477D02*
X008478Y006477D01*
X008478Y006590D02*
X008478Y006363D01*
X008534Y006222D02*
X008478Y006165D01*
X008478Y006052D01*
X008534Y005995D01*
X008761Y006222D01*
X008534Y006222D01*
X008705Y006363D02*
X008818Y006477D01*
X008761Y006222D02*
X008818Y006165D01*
X008818Y006052D01*
X008761Y005995D01*
X008534Y005995D01*
X008648Y005853D02*
X008648Y005627D01*
X008818Y005797D01*
X008478Y005797D01*
X008534Y005485D02*
X008478Y005428D01*
X008478Y005315D01*
X008534Y005258D01*
X008648Y005258D02*
X008705Y005372D01*
X008705Y005428D01*
X008648Y005485D01*
X008534Y005485D01*
X008648Y005258D02*
X008818Y005258D01*
X008818Y005485D01*
X008705Y004762D02*
X008648Y004762D01*
X008648Y004706D01*
X008705Y004706D01*
X008705Y004762D01*
X008534Y004762D02*
X008478Y004762D01*
X008478Y004706D01*
X008534Y004706D01*
X008534Y004762D01*
X008705Y004569D02*
X008705Y004512D01*
X008591Y004399D01*
X008478Y004399D02*
X008705Y004399D01*
X008648Y004257D02*
X008591Y004257D01*
X008591Y004030D01*
X008534Y004030D02*
X008648Y004030D01*
X008705Y004087D01*
X008705Y004201D01*
X008648Y004257D01*
X008478Y004087D02*
X008534Y004030D01*
X008478Y004087D02*
X008478Y004201D01*
X008478Y003889D02*
X008478Y003719D01*
X008534Y003662D01*
X008648Y003662D01*
X008705Y003719D01*
X008705Y003889D01*
X008818Y003889D02*
X008478Y003889D01*
X008705Y003525D02*
X008705Y003469D01*
X008591Y003355D01*
X008478Y003355D02*
X008705Y003355D01*
X008761Y003214D02*
X008818Y003157D01*
X008818Y003044D01*
X008761Y002987D01*
X008534Y002987D01*
X008478Y003044D01*
X008478Y003157D01*
X008534Y003214D01*
X008761Y003214D01*
X006256Y013032D02*
X005915Y013032D01*
X005915Y013312D02*
X006256Y013312D01*
X006256Y015394D02*
X005915Y015394D01*
X005915Y015674D02*
X006256Y015674D01*
D12*
X006177Y015068D02*
X006177Y014838D01*
X006024Y014914D01*
X005947Y014914D01*
X005871Y014838D01*
X005871Y014684D01*
X005947Y014607D01*
X006101Y014607D01*
X006177Y014684D01*
X006331Y014607D02*
X006484Y014761D01*
X006408Y014761D02*
X006638Y014761D01*
X006638Y014607D02*
X006638Y015068D01*
X006408Y015068D01*
X006331Y014991D01*
X006331Y014838D01*
X006408Y014761D01*
X006177Y015068D02*
X005871Y015068D01*
X005947Y012706D02*
X005871Y012629D01*
X005871Y012552D01*
X005947Y012475D01*
X005871Y012399D01*
X005871Y012322D01*
X005947Y012245D01*
X006101Y012245D01*
X006177Y012322D01*
X006024Y012475D02*
X005947Y012475D01*
X005947Y012706D02*
X006101Y012706D01*
X006177Y012629D01*
X006331Y012629D02*
X006331Y012475D01*
X006408Y012399D01*
X006638Y012399D01*
X006484Y012399D02*
X006331Y012245D01*
X006331Y012629D02*
X006408Y012706D01*
X006638Y012706D01*
X006638Y012245D01*
X007522Y007981D02*
X007445Y007905D01*
X007445Y007828D01*
X007752Y007521D01*
X007445Y007521D01*
X007522Y007981D02*
X007676Y007981D01*
X007752Y007905D01*
X007906Y007905D02*
X007906Y007751D01*
X007982Y007674D01*
X008213Y007674D01*
X008213Y007521D02*
X008213Y007981D01*
X007982Y007981D01*
X007906Y007905D01*
X008059Y007674D02*
X007906Y007521D01*
X005380Y002273D02*
X005457Y002196D01*
X005457Y001889D01*
X005380Y001812D01*
X005227Y001812D01*
X005150Y001889D01*
X005150Y002196D02*
X005227Y002273D01*
X005380Y002273D01*
X004996Y002119D02*
X004843Y002273D01*
X004843Y001812D01*
X004996Y001812D02*
X004689Y001812D01*
X004764Y001526D02*
X005045Y001526D01*
X005045Y001191D02*
X004764Y001191D01*
X003076Y007233D02*
X002615Y007233D01*
X002769Y007387D02*
X002615Y007540D01*
X002615Y007694D02*
X002615Y008001D01*
X002615Y007847D02*
X003076Y007847D01*
X002922Y007694D01*
X002846Y007540D02*
X002769Y007464D01*
X002769Y007233D01*
X002846Y007540D02*
X002999Y007540D01*
X003076Y007464D01*
X003076Y007233D01*
X003129Y008263D02*
X002669Y008263D01*
X002822Y008263D02*
X002822Y008493D01*
X002899Y008570D01*
X003052Y008570D01*
X003129Y008493D01*
X003129Y008263D01*
X003129Y008723D02*
X002669Y008723D01*
X002822Y008877D01*
X002669Y009030D01*
X003129Y009030D01*
X003129Y009184D02*
X003129Y009414D01*
X003052Y009491D01*
X002899Y009491D01*
X002822Y009414D01*
X002822Y009184D01*
X002822Y009337D02*
X002669Y009491D01*
X002669Y009184D02*
X003129Y009184D01*
X002395Y009058D02*
X002395Y009422D01*
X001902Y009412D02*
X001902Y009058D01*
X003508Y010901D02*
X003815Y010901D01*
X003585Y011131D01*
X003585Y010670D01*
X003969Y010670D02*
X004122Y010824D01*
X004045Y010824D02*
X004276Y010824D01*
X004276Y010670D02*
X004276Y011131D01*
X004045Y011131D01*
X003969Y011054D01*
X003969Y010901D01*
X004045Y010824D01*
X004045Y014607D02*
X003969Y014684D01*
X004045Y014607D02*
X004199Y014607D01*
X004276Y014684D01*
X004276Y014991D01*
X004199Y015068D01*
X004045Y015068D01*
X003969Y014991D01*
X003815Y014991D02*
X003739Y015068D01*
X003585Y015068D01*
X003508Y014991D01*
X003508Y014914D01*
X003585Y014838D01*
X003508Y014761D01*
X003508Y014684D01*
X003585Y014607D01*
X003739Y014607D01*
X003815Y014684D01*
X003662Y014838D02*
X003585Y014838D01*
X003583Y015364D02*
X003863Y015364D01*
X003863Y015699D02*
X003583Y015699D01*
D13*
X003492Y015532D03*
X003952Y015532D03*
X004673Y001359D03*
X005133Y001359D03*
D14*
X002149Y007410D03*
X002149Y007910D03*
D15*
X003802Y006499D03*
X004117Y006499D03*
X004432Y006499D03*
X004747Y006499D03*
X005062Y006499D03*
X005377Y006499D03*
X005692Y006499D03*
X006007Y006499D03*
X006007Y003309D03*
X005692Y003309D03*
X005377Y003309D03*
X005062Y003309D03*
X004747Y003309D03*
X004432Y003309D03*
X004117Y003309D03*
X003802Y003309D03*
D16*
X003309Y003802D03*
X003309Y004117D03*
X003309Y004432D03*
X003309Y004747D03*
X003309Y005062D03*
X003309Y005377D03*
X003309Y005692D03*
X003309Y006007D03*
X006499Y006007D03*
X006499Y005692D03*
X006499Y005377D03*
X006499Y005062D03*
X006499Y004747D03*
X006499Y004432D03*
X006499Y004117D03*
X006499Y003802D03*
D17*
X006919Y003829D02*
X006919Y003926D01*
X006919Y003878D02*
X007210Y003878D01*
X007210Y003926D02*
X007210Y003829D01*
X007161Y004026D02*
X006968Y004026D01*
X006919Y004074D01*
X006919Y004171D01*
X006968Y004219D01*
X006919Y004320D02*
X006919Y004514D01*
X006919Y004320D02*
X007113Y004514D01*
X007161Y004514D01*
X007210Y004466D01*
X007210Y004369D01*
X007161Y004320D01*
X007161Y004219D02*
X007210Y004171D01*
X007210Y004074D01*
X007161Y004026D01*
D18*
X007410Y008448D03*
X007910Y008448D03*
X006336Y013172D03*
X005836Y013172D03*
X005836Y015534D03*
X006336Y015534D03*
X003973Y011597D03*
X003473Y011597D03*
D19*
X002385Y009176D03*
X001912Y009176D03*
D20*
X002149Y009176D03*
D21*
X002149Y008940D03*
X002149Y009530D03*
M02*
