G75*
G70*
%OFA0B0*%
%FSLAX24Y24*%
%IPPOS*%
%LPD*%
%AMOC8*
5,1,8,0,0,1.08239X$1,22.5*
%
%ADD10C,0.0000*%
%ADD11C,0.0060*%
%ADD12C,0.0050*%
%ADD13R,0.0200X0.0200*%
%ADD14C,0.0080*%
%ADD15C,0.0348*%
%ADD16R,0.0140X0.0510*%
%ADD17C,0.0040*%
%ADD18C,0.0020*%
%ADD19R,0.0374X0.0197*%
D10*
X000574Y000574D02*
X000574Y019471D01*
X009235Y019471D01*
X009235Y000574D01*
X000574Y000574D01*
X001125Y001755D02*
X001127Y001805D01*
X001133Y001855D01*
X001143Y001904D01*
X001157Y001952D01*
X001174Y001999D01*
X001195Y002044D01*
X001220Y002088D01*
X001248Y002129D01*
X001280Y002168D01*
X001314Y002205D01*
X001351Y002239D01*
X001391Y002269D01*
X001433Y002296D01*
X001477Y002320D01*
X001523Y002341D01*
X001570Y002357D01*
X001618Y002370D01*
X001668Y002379D01*
X001717Y002384D01*
X001768Y002385D01*
X001818Y002382D01*
X001867Y002375D01*
X001916Y002364D01*
X001964Y002349D01*
X002010Y002331D01*
X002055Y002309D01*
X002098Y002283D01*
X002139Y002254D01*
X002178Y002222D01*
X002214Y002187D01*
X002246Y002149D01*
X002276Y002109D01*
X002303Y002066D01*
X002326Y002022D01*
X002345Y001976D01*
X002361Y001928D01*
X002373Y001879D01*
X002381Y001830D01*
X002385Y001780D01*
X002385Y001730D01*
X002381Y001680D01*
X002373Y001631D01*
X002361Y001582D01*
X002345Y001534D01*
X002326Y001488D01*
X002303Y001444D01*
X002276Y001401D01*
X002246Y001361D01*
X002214Y001323D01*
X002178Y001288D01*
X002139Y001256D01*
X002098Y001227D01*
X002055Y001201D01*
X002010Y001179D01*
X001964Y001161D01*
X001916Y001146D01*
X001867Y001135D01*
X001818Y001128D01*
X001768Y001125D01*
X001717Y001126D01*
X001668Y001131D01*
X001618Y001140D01*
X001570Y001153D01*
X001523Y001169D01*
X001477Y001190D01*
X001433Y001214D01*
X001391Y001241D01*
X001351Y001271D01*
X001314Y001305D01*
X001280Y001342D01*
X001248Y001381D01*
X001220Y001422D01*
X001195Y001466D01*
X001174Y001511D01*
X001157Y001558D01*
X001143Y001606D01*
X001133Y001655D01*
X001127Y001705D01*
X001125Y001755D01*
X007424Y001755D02*
X007426Y001805D01*
X007432Y001855D01*
X007442Y001904D01*
X007456Y001952D01*
X007473Y001999D01*
X007494Y002044D01*
X007519Y002088D01*
X007547Y002129D01*
X007579Y002168D01*
X007613Y002205D01*
X007650Y002239D01*
X007690Y002269D01*
X007732Y002296D01*
X007776Y002320D01*
X007822Y002341D01*
X007869Y002357D01*
X007917Y002370D01*
X007967Y002379D01*
X008016Y002384D01*
X008067Y002385D01*
X008117Y002382D01*
X008166Y002375D01*
X008215Y002364D01*
X008263Y002349D01*
X008309Y002331D01*
X008354Y002309D01*
X008397Y002283D01*
X008438Y002254D01*
X008477Y002222D01*
X008513Y002187D01*
X008545Y002149D01*
X008575Y002109D01*
X008602Y002066D01*
X008625Y002022D01*
X008644Y001976D01*
X008660Y001928D01*
X008672Y001879D01*
X008680Y001830D01*
X008684Y001780D01*
X008684Y001730D01*
X008680Y001680D01*
X008672Y001631D01*
X008660Y001582D01*
X008644Y001534D01*
X008625Y001488D01*
X008602Y001444D01*
X008575Y001401D01*
X008545Y001361D01*
X008513Y001323D01*
X008477Y001288D01*
X008438Y001256D01*
X008397Y001227D01*
X008354Y001201D01*
X008309Y001179D01*
X008263Y001161D01*
X008215Y001146D01*
X008166Y001135D01*
X008117Y001128D01*
X008067Y001125D01*
X008016Y001126D01*
X007967Y001131D01*
X007917Y001140D01*
X007869Y001153D01*
X007822Y001169D01*
X007776Y001190D01*
X007732Y001214D01*
X007690Y001241D01*
X007650Y001271D01*
X007613Y001305D01*
X007579Y001342D01*
X007547Y001381D01*
X007519Y001422D01*
X007494Y001466D01*
X007473Y001511D01*
X007456Y001558D01*
X007442Y001606D01*
X007432Y001655D01*
X007426Y001705D01*
X007424Y001755D01*
X007424Y018290D02*
X007426Y018340D01*
X007432Y018390D01*
X007442Y018439D01*
X007456Y018487D01*
X007473Y018534D01*
X007494Y018579D01*
X007519Y018623D01*
X007547Y018664D01*
X007579Y018703D01*
X007613Y018740D01*
X007650Y018774D01*
X007690Y018804D01*
X007732Y018831D01*
X007776Y018855D01*
X007822Y018876D01*
X007869Y018892D01*
X007917Y018905D01*
X007967Y018914D01*
X008016Y018919D01*
X008067Y018920D01*
X008117Y018917D01*
X008166Y018910D01*
X008215Y018899D01*
X008263Y018884D01*
X008309Y018866D01*
X008354Y018844D01*
X008397Y018818D01*
X008438Y018789D01*
X008477Y018757D01*
X008513Y018722D01*
X008545Y018684D01*
X008575Y018644D01*
X008602Y018601D01*
X008625Y018557D01*
X008644Y018511D01*
X008660Y018463D01*
X008672Y018414D01*
X008680Y018365D01*
X008684Y018315D01*
X008684Y018265D01*
X008680Y018215D01*
X008672Y018166D01*
X008660Y018117D01*
X008644Y018069D01*
X008625Y018023D01*
X008602Y017979D01*
X008575Y017936D01*
X008545Y017896D01*
X008513Y017858D01*
X008477Y017823D01*
X008438Y017791D01*
X008397Y017762D01*
X008354Y017736D01*
X008309Y017714D01*
X008263Y017696D01*
X008215Y017681D01*
X008166Y017670D01*
X008117Y017663D01*
X008067Y017660D01*
X008016Y017661D01*
X007967Y017666D01*
X007917Y017675D01*
X007869Y017688D01*
X007822Y017704D01*
X007776Y017725D01*
X007732Y017749D01*
X007690Y017776D01*
X007650Y017806D01*
X007613Y017840D01*
X007579Y017877D01*
X007547Y017916D01*
X007519Y017957D01*
X007494Y018001D01*
X007473Y018046D01*
X007456Y018093D01*
X007442Y018141D01*
X007432Y018190D01*
X007426Y018240D01*
X007424Y018290D01*
X001125Y018290D02*
X001127Y018340D01*
X001133Y018390D01*
X001143Y018439D01*
X001157Y018487D01*
X001174Y018534D01*
X001195Y018579D01*
X001220Y018623D01*
X001248Y018664D01*
X001280Y018703D01*
X001314Y018740D01*
X001351Y018774D01*
X001391Y018804D01*
X001433Y018831D01*
X001477Y018855D01*
X001523Y018876D01*
X001570Y018892D01*
X001618Y018905D01*
X001668Y018914D01*
X001717Y018919D01*
X001768Y018920D01*
X001818Y018917D01*
X001867Y018910D01*
X001916Y018899D01*
X001964Y018884D01*
X002010Y018866D01*
X002055Y018844D01*
X002098Y018818D01*
X002139Y018789D01*
X002178Y018757D01*
X002214Y018722D01*
X002246Y018684D01*
X002276Y018644D01*
X002303Y018601D01*
X002326Y018557D01*
X002345Y018511D01*
X002361Y018463D01*
X002373Y018414D01*
X002381Y018365D01*
X002385Y018315D01*
X002385Y018265D01*
X002381Y018215D01*
X002373Y018166D01*
X002361Y018117D01*
X002345Y018069D01*
X002326Y018023D01*
X002303Y017979D01*
X002276Y017936D01*
X002246Y017896D01*
X002214Y017858D01*
X002178Y017823D01*
X002139Y017791D01*
X002098Y017762D01*
X002055Y017736D01*
X002010Y017714D01*
X001964Y017696D01*
X001916Y017681D01*
X001867Y017670D01*
X001818Y017663D01*
X001768Y017660D01*
X001717Y017661D01*
X001668Y017666D01*
X001618Y017675D01*
X001570Y017688D01*
X001523Y017704D01*
X001477Y017725D01*
X001433Y017749D01*
X001391Y017776D01*
X001351Y017806D01*
X001314Y017840D01*
X001280Y017877D01*
X001248Y017916D01*
X001220Y017957D01*
X001195Y018001D01*
X001174Y018046D01*
X001157Y018093D01*
X001143Y018141D01*
X001133Y018190D01*
X001127Y018240D01*
X001125Y018290D01*
D11*
X004304Y017890D02*
X004304Y017690D01*
X004504Y017690D01*
X004404Y018290D02*
X004406Y018334D01*
X004412Y018378D01*
X004422Y018421D01*
X004435Y018463D01*
X004452Y018504D01*
X004473Y018543D01*
X004497Y018580D01*
X004524Y018615D01*
X004554Y018647D01*
X004587Y018677D01*
X004623Y018703D01*
X004660Y018727D01*
X004700Y018746D01*
X004741Y018763D01*
X004784Y018775D01*
X004827Y018784D01*
X004871Y018789D01*
X004915Y018790D01*
X004959Y018787D01*
X005003Y018780D01*
X005046Y018769D01*
X005088Y018755D01*
X005128Y018737D01*
X005167Y018715D01*
X005203Y018691D01*
X005237Y018663D01*
X005269Y018632D01*
X005298Y018598D01*
X005324Y018562D01*
X005346Y018524D01*
X005365Y018484D01*
X005380Y018442D01*
X005392Y018400D01*
X005400Y018356D01*
X005404Y018312D01*
X005404Y018268D01*
X005400Y018224D01*
X005392Y018180D01*
X005380Y018138D01*
X005365Y018096D01*
X005346Y018056D01*
X005324Y018018D01*
X005298Y017982D01*
X005269Y017948D01*
X005237Y017917D01*
X005203Y017889D01*
X005167Y017865D01*
X005128Y017843D01*
X005088Y017825D01*
X005046Y017811D01*
X005003Y017800D01*
X004959Y017793D01*
X004915Y017790D01*
X004871Y017791D01*
X004827Y017796D01*
X004784Y017805D01*
X004741Y017817D01*
X004700Y017834D01*
X004660Y017853D01*
X004623Y017877D01*
X004587Y017903D01*
X004554Y017933D01*
X004524Y017965D01*
X004497Y018000D01*
X004473Y018037D01*
X004452Y018076D01*
X004435Y018117D01*
X004422Y018159D01*
X004412Y018202D01*
X004406Y018246D01*
X004404Y018290D01*
X004304Y018690D02*
X004304Y018890D01*
X004504Y018890D01*
X005304Y018890D02*
X005504Y018890D01*
X005504Y018690D01*
X005504Y017890D02*
X005504Y017690D01*
X005304Y017690D01*
X008585Y010108D02*
X008811Y010108D01*
X008811Y009938D01*
X008755Y009881D01*
X008585Y009881D01*
X008585Y009692D02*
X008811Y009692D01*
X008811Y009636D02*
X008811Y009749D01*
X008811Y009499D02*
X008698Y009329D01*
X008585Y009499D01*
X008585Y009636D02*
X008585Y009692D01*
X008471Y009692D02*
X008414Y009692D01*
X008471Y009329D02*
X008811Y009329D01*
X008811Y007746D02*
X008585Y007746D01*
X008471Y007632D01*
X008585Y007519D01*
X008811Y007519D01*
X008641Y007519D02*
X008641Y007746D01*
X008698Y007009D02*
X008471Y007009D01*
X008471Y006782D02*
X008698Y006782D01*
X008811Y006896D01*
X008698Y007009D01*
X008811Y006641D02*
X008811Y006414D01*
X008471Y006414D01*
X008471Y006641D01*
X008641Y006527D02*
X008641Y006414D01*
X008641Y006272D02*
X008698Y006216D01*
X008698Y006046D01*
X008698Y006159D02*
X008811Y006272D01*
X008641Y006272D02*
X008528Y006272D01*
X008471Y006216D01*
X008471Y006046D01*
X008811Y006046D01*
X008811Y005536D02*
X008471Y005309D01*
X008528Y005168D02*
X008641Y005168D01*
X008698Y005111D01*
X008698Y004941D01*
X008698Y005054D02*
X008811Y005168D01*
X008811Y005309D02*
X008471Y005536D01*
X008528Y005168D02*
X008471Y005111D01*
X008471Y004941D01*
X008811Y004941D01*
X008811Y004686D02*
X008471Y004686D01*
X008471Y004799D02*
X008471Y004572D01*
X008528Y004431D02*
X008471Y004374D01*
X008471Y004261D01*
X008528Y004204D01*
X008471Y003949D02*
X008811Y003949D01*
X008811Y003836D02*
X008811Y004063D01*
X008811Y004204D02*
X008585Y004431D01*
X008528Y004431D01*
X008811Y004431D02*
X008811Y004204D01*
X008471Y003949D02*
X008585Y003836D01*
X008471Y003694D02*
X008811Y003694D01*
X008811Y003467D02*
X008471Y003467D01*
X008585Y003581D01*
X008471Y003694D01*
X008471Y003326D02*
X008471Y003099D01*
X008811Y003099D01*
X008811Y002958D02*
X008698Y002844D01*
X008698Y002901D02*
X008698Y002731D01*
X008811Y002731D02*
X008471Y002731D01*
X008471Y002901D01*
X008528Y002958D01*
X008641Y002958D01*
X008698Y002901D01*
X008641Y003099D02*
X008641Y003213D01*
X006154Y007841D02*
X006404Y008091D01*
X006404Y009591D01*
X006154Y009841D01*
X005654Y009841D01*
X005404Y009591D01*
X005404Y008091D01*
X005654Y007841D01*
X006154Y007841D01*
X005404Y008091D02*
X005154Y007841D01*
X004654Y007841D01*
X004404Y008091D01*
X004404Y009591D01*
X004654Y009841D01*
X005154Y009841D01*
X005404Y009591D01*
X004404Y009591D02*
X004154Y009841D01*
X003654Y009841D01*
X003404Y009591D01*
X003404Y008091D01*
X003654Y007841D01*
X004154Y007841D01*
X004404Y008091D01*
X002405Y003550D02*
X002405Y003110D01*
X001105Y003110D02*
X001105Y003550D01*
D12*
X003566Y002483D02*
X003566Y000790D01*
X006243Y000790D01*
X006243Y000515D01*
X006086Y000515D01*
X006086Y000337D01*
X006082Y000320D01*
X006074Y000305D01*
X006064Y000291D01*
X006052Y000279D01*
X006037Y000269D01*
X006021Y000262D01*
X006004Y000259D01*
X005987Y000258D01*
X005987Y000259D02*
X003802Y000259D01*
X003802Y000258D02*
X003785Y000262D01*
X003770Y000270D01*
X003756Y000280D01*
X003744Y000292D01*
X003734Y000307D01*
X003727Y000323D01*
X003724Y000340D01*
X003723Y000357D01*
X003723Y000515D01*
X003566Y000515D01*
X003566Y000790D01*
X004038Y001932D02*
X004038Y002483D01*
X003566Y002483D01*
X004038Y001932D02*
X005771Y001932D01*
X005771Y002483D01*
X006243Y002483D01*
X006243Y000790D01*
X004197Y010116D02*
X004197Y010567D01*
X004422Y010567D01*
X004497Y010492D01*
X004497Y010342D01*
X004422Y010267D01*
X004197Y010267D01*
X004037Y010267D02*
X004037Y010191D01*
X003962Y010116D01*
X003811Y010116D01*
X003736Y010191D01*
X003811Y010342D02*
X003962Y010342D01*
X004037Y010267D01*
X004037Y010492D02*
X003962Y010567D01*
X003811Y010567D01*
X003736Y010492D01*
X003736Y010417D01*
X003811Y010342D01*
X003580Y010567D02*
X003429Y010567D01*
X003504Y010567D02*
X003504Y010116D01*
X003429Y010116D02*
X003580Y010116D01*
X003383Y013369D02*
X003385Y013431D01*
X003391Y013494D01*
X003401Y013555D01*
X003415Y013616D01*
X003432Y013676D01*
X003453Y013735D01*
X003479Y013792D01*
X003507Y013847D01*
X003539Y013901D01*
X003575Y013952D01*
X003613Y014002D01*
X003655Y014048D01*
X003699Y014092D01*
X003747Y014133D01*
X003796Y014171D01*
X003848Y014205D01*
X003902Y014236D01*
X003958Y014264D01*
X004016Y014288D01*
X004075Y014309D01*
X004135Y014325D01*
X004196Y014338D01*
X004258Y014347D01*
X004320Y014352D01*
X004383Y014353D01*
X004445Y014350D01*
X004507Y014343D01*
X004569Y014332D01*
X004629Y014317D01*
X004689Y014299D01*
X004747Y014277D01*
X004804Y014251D01*
X004859Y014221D01*
X004912Y014188D01*
X004963Y014152D01*
X005011Y014113D01*
X005057Y014070D01*
X005100Y014025D01*
X005140Y013977D01*
X005177Y013927D01*
X005211Y013874D01*
X005242Y013820D01*
X005268Y013764D01*
X005292Y013706D01*
X005311Y013646D01*
X005327Y013586D01*
X005339Y013524D01*
X005347Y013463D01*
X005351Y013400D01*
X005351Y013338D01*
X005347Y013275D01*
X005339Y013214D01*
X005327Y013152D01*
X005311Y013092D01*
X005292Y013032D01*
X005268Y012974D01*
X005242Y012918D01*
X005211Y012864D01*
X005177Y012811D01*
X005140Y012761D01*
X005100Y012713D01*
X005057Y012668D01*
X005011Y012625D01*
X004963Y012586D01*
X004912Y012550D01*
X004859Y012517D01*
X004804Y012487D01*
X004747Y012461D01*
X004689Y012439D01*
X004629Y012421D01*
X004569Y012406D01*
X004507Y012395D01*
X004445Y012388D01*
X004383Y012385D01*
X004320Y012386D01*
X004258Y012391D01*
X004196Y012400D01*
X004135Y012413D01*
X004075Y012429D01*
X004016Y012450D01*
X003958Y012474D01*
X003902Y012502D01*
X003848Y012533D01*
X003796Y012567D01*
X003747Y012605D01*
X003699Y012646D01*
X003655Y012690D01*
X003613Y012736D01*
X003575Y012786D01*
X003539Y012837D01*
X003507Y012891D01*
X003479Y012946D01*
X003453Y013003D01*
X003432Y013062D01*
X003415Y013122D01*
X003401Y013183D01*
X003391Y013244D01*
X003385Y013307D01*
X003383Y013369D01*
X003526Y014944D02*
X003526Y015337D01*
X004117Y015337D01*
X004117Y014944D01*
X003526Y014944D01*
X003330Y015731D02*
X003920Y015731D01*
X003920Y016125D01*
X003330Y016125D01*
X003330Y015731D01*
X004314Y015731D02*
X004314Y016519D01*
X004708Y016519D01*
X004708Y015731D01*
X004314Y015731D01*
X005495Y016078D02*
X005495Y011841D01*
X005497Y011800D01*
X005502Y011760D01*
X005512Y011721D01*
X005525Y011682D01*
X005541Y011645D01*
X005561Y011609D01*
X005584Y011576D01*
X005610Y011545D01*
X005639Y011516D01*
X005670Y011490D01*
X005703Y011467D01*
X005739Y011447D01*
X005776Y011431D01*
X005815Y011418D01*
X005854Y011408D01*
X005894Y011403D01*
X005935Y011401D01*
X005935Y011400D02*
X006039Y011400D01*
X006039Y011401D02*
X006080Y011403D01*
X006120Y011408D01*
X006159Y011418D01*
X006198Y011431D01*
X006235Y011447D01*
X006271Y011467D01*
X006304Y011490D01*
X006335Y011516D01*
X006364Y011545D01*
X006390Y011576D01*
X006413Y011609D01*
X006433Y011645D01*
X006449Y011682D01*
X006462Y011721D01*
X006472Y011760D01*
X006477Y011800D01*
X006479Y011841D01*
X006479Y015974D01*
X006477Y016019D01*
X006472Y016064D01*
X006462Y016108D01*
X006450Y016151D01*
X006433Y016193D01*
X006413Y016233D01*
X006390Y016272D01*
X006364Y016308D01*
X006335Y016342D01*
X006303Y016374D01*
X006269Y016403D01*
X006233Y016429D01*
X006194Y016452D01*
X006154Y016472D01*
X006112Y016489D01*
X006069Y016501D01*
X006025Y016511D01*
X005980Y016516D01*
X005935Y016518D01*
X005894Y016516D01*
X005854Y016511D01*
X005815Y016501D01*
X005776Y016488D01*
X005739Y016472D01*
X005703Y016452D01*
X005670Y016429D01*
X005639Y016403D01*
X005610Y016374D01*
X005584Y016343D01*
X005561Y016310D01*
X005541Y016274D01*
X005525Y016237D01*
X005512Y016198D01*
X005502Y016159D01*
X005497Y016119D01*
X005495Y016078D01*
X005928Y017632D02*
X005777Y017783D01*
X005928Y017933D01*
X006228Y017933D01*
X006228Y018093D02*
X005777Y018093D01*
X006228Y018393D01*
X005777Y018393D01*
X005777Y018553D02*
X005777Y018854D01*
X005777Y018703D02*
X006228Y018703D01*
X006003Y017933D02*
X006003Y017632D01*
X005928Y017632D02*
X006228Y017632D01*
X008054Y017109D02*
X008054Y010810D01*
X001755Y010810D01*
X001755Y017109D01*
X008054Y017109D01*
D13*
X005904Y009341D03*
X005904Y008341D03*
X004904Y008341D03*
X004904Y009341D03*
X003904Y009341D03*
X003904Y008341D03*
D14*
X002897Y005928D02*
X002897Y003881D01*
X006912Y003881D01*
X006912Y005928D01*
X002897Y005928D01*
X002359Y003644D02*
X001150Y003644D01*
X001150Y003015D01*
X002359Y003015D01*
X002359Y003644D01*
X002251Y003330D02*
X002030Y003330D01*
X002137Y003227D02*
X002137Y003448D01*
X003566Y002483D02*
X003566Y001853D01*
X003566Y002483D02*
X004038Y002483D01*
X004038Y001932D01*
X005771Y001932D01*
X005771Y002483D01*
X006243Y002483D01*
X006243Y001853D01*
X006243Y000790D02*
X003566Y000790D01*
X003566Y000515D02*
X003330Y000278D01*
X006243Y000515D02*
X006479Y000278D01*
D15*
X006558Y005544D03*
D16*
X006568Y006199D03*
X006312Y006199D03*
X006056Y006199D03*
X005800Y006199D03*
X005544Y006199D03*
X005288Y006199D03*
X005032Y006199D03*
X004776Y006199D03*
X004521Y006199D03*
X004265Y006199D03*
X004009Y006199D03*
X003753Y006199D03*
X003497Y006199D03*
X003241Y006199D03*
X003241Y003609D03*
X003497Y003609D03*
X003753Y003609D03*
X004009Y003609D03*
X004265Y003609D03*
X004521Y003609D03*
X004776Y003609D03*
X005032Y003609D03*
X005288Y003609D03*
X005544Y003609D03*
X005800Y003609D03*
X006056Y003609D03*
X006312Y003609D03*
X006568Y003609D03*
D17*
X007080Y004142D02*
X007080Y004295D01*
X007080Y004218D02*
X007540Y004218D01*
X007540Y004142D02*
X007540Y004295D01*
X007464Y004448D02*
X007540Y004525D01*
X007540Y004679D01*
X007464Y004755D01*
X007540Y004909D02*
X007540Y005216D01*
X007540Y005062D02*
X007080Y005062D01*
X007233Y004909D01*
X007157Y004755D02*
X007080Y004679D01*
X007080Y004525D01*
X007157Y004448D01*
X007464Y004448D01*
X006172Y012859D02*
X005711Y012859D01*
X005711Y013089D01*
X005788Y013166D01*
X005942Y013166D01*
X006018Y013089D01*
X006018Y012859D01*
X006018Y013012D02*
X006172Y013166D01*
X006172Y013319D02*
X005711Y013319D01*
X005711Y013626D01*
X005711Y013779D02*
X005865Y013933D01*
X005711Y014086D01*
X006172Y014086D01*
X006172Y014240D02*
X006172Y014547D01*
X006172Y014700D02*
X005865Y015007D01*
X005788Y015007D01*
X005711Y014930D01*
X005711Y014777D01*
X005788Y014700D01*
X005711Y014393D02*
X006172Y014393D01*
X006172Y014700D02*
X006172Y015007D01*
X005711Y014393D02*
X005865Y014240D01*
X005711Y013779D02*
X006172Y013779D01*
X005942Y013473D02*
X005942Y013319D01*
X002319Y005832D02*
X002319Y005552D01*
X001984Y005552D02*
X001984Y005832D01*
X001697Y005928D02*
X001237Y005928D01*
X001467Y005698D01*
X001467Y006005D01*
X001314Y005545D02*
X001237Y005468D01*
X001237Y005315D01*
X001314Y005238D01*
X001621Y005238D01*
X001697Y005315D01*
X001697Y005468D01*
X001621Y005545D01*
X001494Y004385D02*
X001340Y004385D01*
X001263Y004308D01*
X001263Y004001D01*
X001340Y003924D01*
X001494Y003924D01*
X001570Y004001D01*
X001724Y003924D02*
X002031Y004231D01*
X002031Y004308D01*
X001954Y004385D01*
X001801Y004385D01*
X001724Y004308D01*
X001570Y004308D02*
X001494Y004385D01*
X001724Y003924D02*
X002031Y003924D01*
D18*
X003177Y001505D02*
X003457Y001505D01*
X003457Y001598D02*
X003457Y001411D01*
X003457Y001322D02*
X003177Y001135D01*
X003177Y001322D02*
X003457Y001135D01*
X003271Y001411D02*
X003177Y001505D01*
X003122Y011564D02*
X002975Y011564D01*
X002975Y011784D01*
X002901Y011784D02*
X002754Y011784D01*
X002754Y011564D01*
X002901Y011564D01*
X002827Y011674D02*
X002754Y011674D01*
X002680Y011638D02*
X002680Y011601D01*
X002643Y011564D01*
X002570Y011564D01*
X002533Y011601D01*
X002570Y011674D02*
X002533Y011711D01*
X002533Y011748D01*
X002570Y011784D01*
X002643Y011784D01*
X002680Y011748D01*
X002643Y011674D02*
X002680Y011638D01*
X002643Y011674D02*
X002570Y011674D01*
X002459Y011674D02*
X002459Y011564D01*
X002459Y011674D02*
X002422Y011711D01*
X002312Y011711D01*
X002312Y011564D01*
X002373Y012352D02*
X002336Y012388D01*
X002373Y012352D02*
X002446Y012352D01*
X002483Y012388D01*
X002483Y012425D01*
X002446Y012462D01*
X002373Y012462D01*
X002336Y012498D01*
X002336Y012535D01*
X002373Y012572D01*
X002446Y012572D01*
X002483Y012535D01*
X002557Y012535D02*
X002557Y012388D01*
X002594Y012352D01*
X002667Y012352D01*
X002704Y012388D01*
X002778Y012352D02*
X002778Y012572D01*
X002704Y012535D02*
X002667Y012572D01*
X002594Y012572D01*
X002557Y012535D01*
X002778Y012425D02*
X002925Y012572D01*
X002815Y012462D02*
X002925Y012352D01*
X002925Y013139D02*
X002852Y013139D01*
X002888Y013139D02*
X002888Y013359D01*
X002852Y013359D02*
X002925Y013359D01*
X002778Y013322D02*
X002778Y013176D01*
X002741Y013139D01*
X002631Y013139D01*
X002631Y013359D01*
X002741Y013359D01*
X002778Y013322D01*
X002557Y013322D02*
X002520Y013359D01*
X002446Y013359D01*
X002410Y013322D01*
X002410Y013286D01*
X002446Y013249D01*
X002520Y013249D01*
X002557Y013212D01*
X002557Y013176D01*
X002520Y013139D01*
X002446Y013139D01*
X002410Y013176D01*
X002386Y013926D02*
X002386Y014073D01*
X002496Y014073D01*
X002532Y014036D01*
X002532Y013926D01*
X002607Y013926D02*
X002680Y013926D01*
X002643Y013926D02*
X002643Y014147D01*
X002607Y014147D02*
X002680Y014147D01*
X002754Y014147D02*
X002754Y013926D01*
X002901Y013926D02*
X002754Y014147D01*
X002901Y014147D02*
X002901Y013926D01*
X002975Y014147D02*
X003122Y014147D01*
X003048Y014147D02*
X003048Y013926D01*
X002888Y014714D02*
X002778Y014714D01*
X002778Y014934D01*
X002888Y014934D01*
X002925Y014897D01*
X002925Y014750D01*
X002888Y014714D01*
X002704Y014714D02*
X002704Y014934D01*
X002557Y014934D02*
X002557Y014714D01*
X002483Y014750D02*
X002483Y014824D01*
X002409Y014824D01*
X002336Y014897D02*
X002336Y014750D01*
X002373Y014714D01*
X002446Y014714D01*
X002483Y014750D01*
X002483Y014897D02*
X002446Y014934D01*
X002373Y014934D01*
X002336Y014897D01*
X002557Y014934D02*
X002704Y014714D01*
X002704Y015501D02*
X002594Y015501D01*
X002557Y015538D01*
X002557Y015611D01*
X002594Y015648D01*
X002704Y015648D01*
X002704Y015721D02*
X002704Y015501D01*
X002778Y015538D02*
X002778Y015611D01*
X002815Y015648D01*
X002925Y015648D01*
X002925Y015721D02*
X002925Y015501D01*
X002815Y015501D01*
X002778Y015538D01*
X002483Y015575D02*
X002483Y015721D01*
X002483Y015575D02*
X002409Y015501D01*
X002336Y015575D01*
X002336Y015721D01*
X002336Y016289D02*
X002336Y016435D01*
X002409Y016509D01*
X002483Y016435D01*
X002483Y016289D01*
X002557Y016289D02*
X002557Y016509D01*
X002704Y016289D01*
X002704Y016509D01*
X002778Y016509D02*
X002925Y016509D01*
X002851Y016509D02*
X002851Y016289D01*
X002483Y016399D02*
X002336Y016399D01*
X006483Y015451D02*
X006483Y015304D01*
X006630Y015304D02*
X006630Y015414D01*
X006593Y015451D01*
X006483Y015451D01*
X006704Y015378D02*
X006814Y015378D01*
X006851Y015414D01*
X006851Y015488D01*
X006814Y015525D01*
X006704Y015525D01*
X006704Y015304D01*
X006778Y015378D02*
X006851Y015304D01*
X006925Y015304D02*
X006925Y015525D01*
X007072Y015525D01*
X007146Y015488D02*
X007146Y015451D01*
X007183Y015414D01*
X007256Y015414D01*
X007293Y015378D01*
X007293Y015341D01*
X007256Y015304D01*
X007183Y015304D01*
X007146Y015341D01*
X007072Y015304D02*
X006925Y015304D01*
X006925Y015414D02*
X006999Y015414D01*
X007146Y015488D02*
X007183Y015525D01*
X007256Y015525D01*
X007293Y015488D01*
X007293Y014934D02*
X007146Y014787D01*
X007183Y014824D02*
X007293Y014714D01*
X007146Y014714D02*
X007146Y014934D01*
X007072Y014714D02*
X006925Y014714D01*
X006925Y014934D01*
X006851Y014897D02*
X006814Y014934D01*
X006741Y014934D01*
X006704Y014897D01*
X006704Y014750D01*
X006741Y014714D01*
X006814Y014714D01*
X006851Y014750D01*
X006814Y014147D02*
X006741Y014147D01*
X006704Y014110D01*
X006704Y013963D01*
X006741Y013926D01*
X006814Y013926D01*
X006851Y013963D01*
X006925Y013926D02*
X006925Y014147D01*
X006851Y014110D02*
X006814Y014147D01*
X006925Y013926D02*
X007072Y013926D01*
X007146Y013926D02*
X007146Y014147D01*
X007183Y014036D02*
X007293Y013926D01*
X007146Y014000D02*
X007293Y014147D01*
X007293Y013359D02*
X007146Y013212D01*
X007183Y013249D02*
X007293Y013139D01*
X007146Y013139D02*
X007146Y013359D01*
X007072Y013322D02*
X007035Y013359D01*
X006962Y013359D01*
X006925Y013322D01*
X006925Y013286D01*
X006962Y013249D01*
X007035Y013249D01*
X007072Y013212D01*
X007072Y013176D01*
X007035Y013139D01*
X006962Y013139D01*
X006925Y013176D01*
X006778Y013249D02*
X006704Y013249D01*
X006704Y013139D02*
X006704Y013359D01*
X006851Y013359D01*
X006593Y013926D02*
X006483Y013926D01*
X006483Y014147D01*
X006593Y014147D01*
X006630Y014110D01*
X006630Y013963D01*
X006593Y013926D01*
X006778Y012375D02*
X006851Y012375D01*
X006815Y012375D02*
X006815Y012155D01*
X006851Y012155D02*
X006778Y012155D01*
X006704Y012155D02*
X006704Y012265D01*
X006667Y012302D01*
X006557Y012302D01*
X006557Y012155D01*
X006741Y011784D02*
X006704Y011748D01*
X006704Y011711D01*
X006741Y011674D01*
X006814Y011674D01*
X006851Y011638D01*
X006851Y011601D01*
X006814Y011564D01*
X006741Y011564D01*
X006704Y011601D01*
X006741Y011784D02*
X006814Y011784D01*
X006851Y011748D01*
X006925Y011784D02*
X006925Y011564D01*
X007035Y011564D01*
X007072Y011601D01*
X007072Y011748D01*
X007035Y011784D01*
X006925Y011784D01*
X007146Y011748D02*
X007146Y011601D01*
X007183Y011564D01*
X007256Y011564D01*
X007293Y011601D01*
X007293Y011748D01*
X007256Y011784D01*
X007183Y011784D01*
X007146Y011748D01*
X007183Y012155D02*
X007146Y012191D01*
X007146Y012338D01*
X007183Y012375D01*
X007256Y012375D01*
X007293Y012338D01*
X007293Y012191D01*
X007256Y012155D01*
X007183Y012155D01*
X007220Y012228D02*
X007293Y012155D01*
X007072Y012155D02*
X006999Y012228D01*
X007035Y012228D02*
X006925Y012228D01*
X006925Y012155D02*
X006925Y012375D01*
X007035Y012375D01*
X007072Y012338D01*
X007072Y012265D01*
X007035Y012228D01*
X007072Y016289D02*
X007072Y016509D01*
X007146Y016509D02*
X007256Y016509D01*
X007293Y016472D01*
X007293Y016325D01*
X007256Y016289D01*
X007146Y016289D01*
X007146Y016509D01*
X006925Y016509D02*
X007072Y016289D01*
X006925Y016289D02*
X006925Y016509D01*
X006851Y016472D02*
X006814Y016509D01*
X006741Y016509D01*
X006704Y016472D01*
X006704Y016325D01*
X006741Y016289D01*
X006814Y016289D01*
X006851Y016325D01*
X006851Y016399D01*
X006778Y016399D01*
D19*
X002151Y005923D03*
X002151Y005463D03*
M02*
