G75*
G70*
%OFA0B0*%
%FSLAX24Y24*%
%IPPOS*%
%LPD*%
%AMOC8*
5,1,8,0,0,1.08239X$1,22.5*
%
%ADD10C,0.0000*%
%ADD11OC8,0.0600*%
%ADD12R,0.0433X0.0394*%
%ADD13R,0.0220X0.0500*%
%ADD14R,0.0500X0.0220*%
%ADD15R,0.0394X0.0433*%
%ADD16R,0.0472X0.0472*%
%ADD17OC8,0.1250*%
%ADD18C,0.0160*%
%ADD19OC8,0.0356*%
D10*
X000574Y000574D02*
X000574Y019471D01*
X009235Y019471D01*
X009235Y000574D01*
X000574Y000574D01*
X001125Y001755D02*
X001127Y001805D01*
X001133Y001855D01*
X001143Y001904D01*
X001157Y001952D01*
X001174Y001999D01*
X001195Y002044D01*
X001220Y002088D01*
X001248Y002129D01*
X001280Y002168D01*
X001314Y002205D01*
X001351Y002239D01*
X001391Y002269D01*
X001433Y002296D01*
X001477Y002320D01*
X001523Y002341D01*
X001570Y002357D01*
X001618Y002370D01*
X001668Y002379D01*
X001717Y002384D01*
X001768Y002385D01*
X001818Y002382D01*
X001867Y002375D01*
X001916Y002364D01*
X001964Y002349D01*
X002010Y002331D01*
X002055Y002309D01*
X002098Y002283D01*
X002139Y002254D01*
X002178Y002222D01*
X002214Y002187D01*
X002246Y002149D01*
X002276Y002109D01*
X002303Y002066D01*
X002326Y002022D01*
X002345Y001976D01*
X002361Y001928D01*
X002373Y001879D01*
X002381Y001830D01*
X002385Y001780D01*
X002385Y001730D01*
X002381Y001680D01*
X002373Y001631D01*
X002361Y001582D01*
X002345Y001534D01*
X002326Y001488D01*
X002303Y001444D01*
X002276Y001401D01*
X002246Y001361D01*
X002214Y001323D01*
X002178Y001288D01*
X002139Y001256D01*
X002098Y001227D01*
X002055Y001201D01*
X002010Y001179D01*
X001964Y001161D01*
X001916Y001146D01*
X001867Y001135D01*
X001818Y001128D01*
X001768Y001125D01*
X001717Y001126D01*
X001668Y001131D01*
X001618Y001140D01*
X001570Y001153D01*
X001523Y001169D01*
X001477Y001190D01*
X001433Y001214D01*
X001391Y001241D01*
X001351Y001271D01*
X001314Y001305D01*
X001280Y001342D01*
X001248Y001381D01*
X001220Y001422D01*
X001195Y001466D01*
X001174Y001511D01*
X001157Y001558D01*
X001143Y001606D01*
X001133Y001655D01*
X001127Y001705D01*
X001125Y001755D01*
X007424Y001755D02*
X007426Y001805D01*
X007432Y001855D01*
X007442Y001904D01*
X007456Y001952D01*
X007473Y001999D01*
X007494Y002044D01*
X007519Y002088D01*
X007547Y002129D01*
X007579Y002168D01*
X007613Y002205D01*
X007650Y002239D01*
X007690Y002269D01*
X007732Y002296D01*
X007776Y002320D01*
X007822Y002341D01*
X007869Y002357D01*
X007917Y002370D01*
X007967Y002379D01*
X008016Y002384D01*
X008067Y002385D01*
X008117Y002382D01*
X008166Y002375D01*
X008215Y002364D01*
X008263Y002349D01*
X008309Y002331D01*
X008354Y002309D01*
X008397Y002283D01*
X008438Y002254D01*
X008477Y002222D01*
X008513Y002187D01*
X008545Y002149D01*
X008575Y002109D01*
X008602Y002066D01*
X008625Y002022D01*
X008644Y001976D01*
X008660Y001928D01*
X008672Y001879D01*
X008680Y001830D01*
X008684Y001780D01*
X008684Y001730D01*
X008680Y001680D01*
X008672Y001631D01*
X008660Y001582D01*
X008644Y001534D01*
X008625Y001488D01*
X008602Y001444D01*
X008575Y001401D01*
X008545Y001361D01*
X008513Y001323D01*
X008477Y001288D01*
X008438Y001256D01*
X008397Y001227D01*
X008354Y001201D01*
X008309Y001179D01*
X008263Y001161D01*
X008215Y001146D01*
X008166Y001135D01*
X008117Y001128D01*
X008067Y001125D01*
X008016Y001126D01*
X007967Y001131D01*
X007917Y001140D01*
X007869Y001153D01*
X007822Y001169D01*
X007776Y001190D01*
X007732Y001214D01*
X007690Y001241D01*
X007650Y001271D01*
X007613Y001305D01*
X007579Y001342D01*
X007547Y001381D01*
X007519Y001422D01*
X007494Y001466D01*
X007473Y001511D01*
X007456Y001558D01*
X007442Y001606D01*
X007432Y001655D01*
X007426Y001705D01*
X007424Y001755D01*
X007424Y018290D02*
X007426Y018340D01*
X007432Y018390D01*
X007442Y018439D01*
X007456Y018487D01*
X007473Y018534D01*
X007494Y018579D01*
X007519Y018623D01*
X007547Y018664D01*
X007579Y018703D01*
X007613Y018740D01*
X007650Y018774D01*
X007690Y018804D01*
X007732Y018831D01*
X007776Y018855D01*
X007822Y018876D01*
X007869Y018892D01*
X007917Y018905D01*
X007967Y018914D01*
X008016Y018919D01*
X008067Y018920D01*
X008117Y018917D01*
X008166Y018910D01*
X008215Y018899D01*
X008263Y018884D01*
X008309Y018866D01*
X008354Y018844D01*
X008397Y018818D01*
X008438Y018789D01*
X008477Y018757D01*
X008513Y018722D01*
X008545Y018684D01*
X008575Y018644D01*
X008602Y018601D01*
X008625Y018557D01*
X008644Y018511D01*
X008660Y018463D01*
X008672Y018414D01*
X008680Y018365D01*
X008684Y018315D01*
X008684Y018265D01*
X008680Y018215D01*
X008672Y018166D01*
X008660Y018117D01*
X008644Y018069D01*
X008625Y018023D01*
X008602Y017979D01*
X008575Y017936D01*
X008545Y017896D01*
X008513Y017858D01*
X008477Y017823D01*
X008438Y017791D01*
X008397Y017762D01*
X008354Y017736D01*
X008309Y017714D01*
X008263Y017696D01*
X008215Y017681D01*
X008166Y017670D01*
X008117Y017663D01*
X008067Y017660D01*
X008016Y017661D01*
X007967Y017666D01*
X007917Y017675D01*
X007869Y017688D01*
X007822Y017704D01*
X007776Y017725D01*
X007732Y017749D01*
X007690Y017776D01*
X007650Y017806D01*
X007613Y017840D01*
X007579Y017877D01*
X007547Y017916D01*
X007519Y017957D01*
X007494Y018001D01*
X007473Y018046D01*
X007456Y018093D01*
X007442Y018141D01*
X007432Y018190D01*
X007426Y018240D01*
X007424Y018290D01*
X001125Y018290D02*
X001127Y018340D01*
X001133Y018390D01*
X001143Y018439D01*
X001157Y018487D01*
X001174Y018534D01*
X001195Y018579D01*
X001220Y018623D01*
X001248Y018664D01*
X001280Y018703D01*
X001314Y018740D01*
X001351Y018774D01*
X001391Y018804D01*
X001433Y018831D01*
X001477Y018855D01*
X001523Y018876D01*
X001570Y018892D01*
X001618Y018905D01*
X001668Y018914D01*
X001717Y018919D01*
X001768Y018920D01*
X001818Y018917D01*
X001867Y018910D01*
X001916Y018899D01*
X001964Y018884D01*
X002010Y018866D01*
X002055Y018844D01*
X002098Y018818D01*
X002139Y018789D01*
X002178Y018757D01*
X002214Y018722D01*
X002246Y018684D01*
X002276Y018644D01*
X002303Y018601D01*
X002326Y018557D01*
X002345Y018511D01*
X002361Y018463D01*
X002373Y018414D01*
X002381Y018365D01*
X002385Y018315D01*
X002385Y018265D01*
X002381Y018215D01*
X002373Y018166D01*
X002361Y018117D01*
X002345Y018069D01*
X002326Y018023D01*
X002303Y017979D01*
X002276Y017936D01*
X002246Y017896D01*
X002214Y017858D01*
X002178Y017823D01*
X002139Y017791D01*
X002098Y017762D01*
X002055Y017736D01*
X002010Y017714D01*
X001964Y017696D01*
X001916Y017681D01*
X001867Y017670D01*
X001818Y017663D01*
X001768Y017660D01*
X001717Y017661D01*
X001668Y017666D01*
X001618Y017675D01*
X001570Y017688D01*
X001523Y017704D01*
X001477Y017725D01*
X001433Y017749D01*
X001391Y017776D01*
X001351Y017806D01*
X001314Y017840D01*
X001280Y017877D01*
X001248Y017916D01*
X001220Y017957D01*
X001195Y018001D01*
X001174Y018046D01*
X001157Y018093D01*
X001143Y018141D01*
X001133Y018190D01*
X001127Y018240D01*
X001125Y018290D01*
D11*
X003904Y009341D03*
X003904Y008341D03*
X004904Y008341D03*
X004904Y009341D03*
X005904Y009341D03*
X005904Y008341D03*
D12*
X005239Y001361D03*
X004570Y001361D03*
X002149Y007326D03*
X002149Y007995D03*
X003389Y015534D03*
X004058Y015534D03*
D13*
X004117Y006594D03*
X003802Y006594D03*
X004432Y006594D03*
X004747Y006594D03*
X005062Y006594D03*
X005377Y006594D03*
X005692Y006594D03*
X006007Y006594D03*
X006007Y003214D03*
X005692Y003214D03*
X005377Y003214D03*
X005062Y003214D03*
X004747Y003214D03*
X004432Y003214D03*
X004117Y003214D03*
X003802Y003214D03*
D14*
X003214Y003802D03*
X003214Y004117D03*
X003214Y004432D03*
X003214Y004747D03*
X003214Y005062D03*
X003214Y005377D03*
X003214Y005692D03*
X003214Y006007D03*
X006594Y006007D03*
X006594Y005692D03*
X006594Y005377D03*
X006594Y005062D03*
X006594Y004747D03*
X006594Y004432D03*
X006594Y004117D03*
X006594Y003802D03*
D15*
X007326Y008448D03*
X007995Y008448D03*
X006420Y013172D03*
X005751Y013172D03*
X005751Y015534D03*
X006420Y015534D03*
X004058Y011597D03*
X003389Y011597D03*
D16*
X002149Y009649D03*
X002149Y008822D03*
D17*
X004904Y018290D03*
D18*
X004425Y019118D02*
X000754Y019118D01*
X000754Y018960D02*
X001279Y018960D01*
X001296Y018977D02*
X001068Y018749D01*
X000945Y018451D01*
X000945Y018129D01*
X001068Y017831D01*
X001296Y017604D01*
X001594Y017480D01*
X001916Y017480D01*
X002214Y017604D01*
X002441Y017831D01*
X002565Y018129D01*
X002565Y018451D01*
X002441Y018749D01*
X002214Y018977D01*
X001916Y019100D01*
X001594Y019100D01*
X001296Y018977D01*
X001120Y018801D02*
X000754Y018801D01*
X000754Y018643D02*
X001024Y018643D01*
X000959Y018484D02*
X000754Y018484D01*
X000754Y018326D02*
X000945Y018326D01*
X000945Y018167D02*
X000754Y018167D01*
X000754Y018009D02*
X000995Y018009D01*
X001060Y017850D02*
X000754Y017850D01*
X000754Y017692D02*
X001208Y017692D01*
X001466Y017533D02*
X000754Y017533D01*
X000754Y017375D02*
X003169Y017375D01*
X003327Y017533D02*
X002044Y017533D01*
X002302Y017692D02*
X003486Y017692D01*
X003644Y017850D02*
X002449Y017850D01*
X002515Y018009D02*
X003803Y018009D01*
X003956Y018162D02*
X003931Y018290D01*
X004005Y018663D01*
X004216Y018979D01*
X004532Y019190D01*
X004904Y019264D01*
X005277Y019190D01*
X005593Y018979D01*
X005804Y018663D01*
X005878Y018290D01*
X005804Y017918D01*
X005593Y017602D01*
X005277Y017391D01*
X004904Y017317D01*
X004776Y017342D01*
X003306Y015871D01*
X003663Y015871D01*
X003696Y015839D01*
X003697Y015842D01*
X003731Y015875D01*
X003772Y015899D01*
X003818Y015911D01*
X004040Y015911D01*
X004040Y015553D01*
X004076Y015553D01*
X004076Y015911D01*
X004298Y015911D01*
X004344Y015899D01*
X004385Y015875D01*
X004419Y015842D01*
X004442Y015801D01*
X004454Y015755D01*
X004454Y015553D01*
X004076Y015553D01*
X004076Y015516D01*
X004076Y015157D01*
X004298Y015157D01*
X004344Y015170D01*
X004385Y015193D01*
X004419Y015227D01*
X004442Y015268D01*
X004454Y015314D01*
X004454Y015516D01*
X004076Y015516D01*
X004040Y015516D01*
X004040Y015157D01*
X003818Y015157D01*
X003772Y015170D01*
X003731Y015193D01*
X003697Y015227D01*
X003696Y015230D01*
X003663Y015197D01*
X003609Y015197D01*
X003609Y014385D01*
X004602Y013392D01*
X005414Y013392D01*
X005414Y013447D01*
X005496Y013529D01*
X006006Y013529D01*
X006086Y013449D01*
X006165Y013529D01*
X006675Y013529D01*
X006757Y013447D01*
X006757Y013392D01*
X006840Y013392D01*
X006938Y013490D01*
X007202Y013490D01*
X007388Y013304D01*
X007388Y013040D01*
X007202Y012854D01*
X006938Y012854D01*
X006840Y012952D01*
X006757Y012952D01*
X006757Y012898D01*
X006675Y012816D01*
X006165Y012816D01*
X006086Y012895D01*
X006006Y012816D01*
X005496Y012816D01*
X005414Y012898D01*
X005414Y012952D01*
X004602Y012952D01*
X004278Y012628D01*
X004278Y011954D01*
X004313Y011954D01*
X004395Y011872D01*
X004395Y011323D01*
X004313Y011241D01*
X004278Y011241D01*
X004278Y009590D01*
X004344Y009524D01*
X004344Y009159D01*
X004247Y009061D01*
X004313Y009061D01*
X004464Y009213D01*
X004464Y009524D01*
X004722Y009781D01*
X005087Y009781D01*
X005344Y009524D01*
X005344Y009159D01*
X005087Y008901D01*
X004776Y008901D01*
X004624Y008750D01*
X004496Y008621D01*
X004247Y008621D01*
X004344Y008524D01*
X004344Y008159D01*
X004087Y007901D01*
X003776Y007901D01*
X003434Y007560D01*
X003434Y006257D01*
X003522Y006257D01*
X003604Y006175D01*
X003604Y003634D01*
X003522Y003552D01*
X002906Y003552D01*
X002824Y003634D01*
X002824Y005157D01*
X001570Y005157D01*
X001388Y005157D01*
X000846Y005699D01*
X000846Y010114D01*
X000975Y010243D01*
X001270Y010538D01*
X002018Y010538D01*
X002759Y011279D01*
X002607Y011279D01*
X002421Y011466D01*
X002421Y011729D01*
X002607Y011915D01*
X002871Y011915D01*
X002969Y011817D01*
X003052Y011817D01*
X003052Y011872D01*
X003134Y011954D01*
X003644Y011954D01*
X003723Y011874D01*
X003803Y011954D01*
X003838Y011954D01*
X003838Y012810D01*
X004200Y013172D01*
X003169Y014203D01*
X003169Y015197D01*
X003114Y015197D01*
X003032Y015279D01*
X003032Y015314D01*
X002969Y015314D01*
X003032Y015314D01*
X002969Y015314D02*
X002871Y015216D01*
X002607Y015216D01*
X002421Y015403D01*
X002421Y015666D01*
X002596Y015841D01*
X002444Y015993D01*
X002356Y016206D01*
X002356Y016437D01*
X002444Y016650D01*
X003956Y018162D01*
X003955Y018167D02*
X002565Y018167D01*
X002565Y018326D02*
X003938Y018326D01*
X003969Y018484D02*
X002551Y018484D01*
X002485Y018643D02*
X004001Y018643D01*
X004097Y018801D02*
X002389Y018801D01*
X002231Y018960D02*
X004203Y018960D01*
X004651Y017216D02*
X009055Y017216D01*
X009055Y017058D02*
X004492Y017058D01*
X004334Y016899D02*
X009055Y016899D01*
X009055Y016741D02*
X004175Y016741D01*
X004017Y016582D02*
X009055Y016582D01*
X009055Y016424D02*
X003858Y016424D01*
X003700Y016265D02*
X009055Y016265D01*
X009055Y016107D02*
X003541Y016107D01*
X003383Y015948D02*
X009055Y015948D01*
X009055Y015790D02*
X007264Y015790D01*
X007202Y015852D02*
X006938Y015852D01*
X006840Y015754D01*
X006757Y015754D01*
X006757Y015809D01*
X006675Y015891D01*
X006165Y015891D01*
X006086Y015811D01*
X006006Y015891D01*
X005496Y015891D01*
X005414Y015809D01*
X005414Y015260D01*
X005496Y015178D01*
X005540Y015178D01*
X006388Y014330D01*
X007963Y014330D01*
X008425Y013868D01*
X008425Y003125D01*
X008357Y003057D01*
X006257Y003057D01*
X006257Y003522D01*
X006175Y003604D01*
X005601Y003604D01*
X005597Y003608D01*
X005556Y003632D01*
X005511Y003644D01*
X005432Y003644D01*
X005488Y003700D01*
X005617Y003829D01*
X005617Y004799D01*
X005321Y005094D01*
X005192Y005223D01*
X004741Y005223D01*
X004642Y005321D01*
X004504Y005321D01*
X004337Y005488D01*
X004337Y006204D01*
X004837Y006204D01*
X004841Y006200D01*
X004882Y006177D01*
X004928Y006164D01*
X005062Y006164D01*
X005196Y006164D01*
X005241Y006177D01*
X005282Y006200D01*
X005286Y006204D01*
X006175Y006204D01*
X006257Y006286D01*
X006257Y006902D01*
X006175Y006984D01*
X005286Y006984D01*
X005282Y006988D01*
X005241Y007012D01*
X005196Y007024D01*
X005062Y007024D01*
X005062Y006594D01*
X005062Y006164D01*
X005062Y006594D01*
X005062Y006594D01*
X005062Y006594D01*
X005062Y007024D01*
X004928Y007024D01*
X004882Y007012D01*
X004841Y006988D01*
X004837Y006984D01*
X004441Y006984D01*
X004700Y007243D01*
X005560Y007243D01*
X005658Y007145D01*
X005922Y007145D01*
X006020Y007243D01*
X006433Y007243D01*
X007279Y008090D01*
X007417Y008090D01*
X007418Y008091D01*
X007581Y008091D01*
X007660Y008171D01*
X007740Y008091D01*
X007834Y008091D01*
X007834Y005783D01*
X007018Y004967D01*
X006984Y004967D01*
X006984Y006175D01*
X006902Y006257D01*
X006286Y006257D01*
X006204Y006175D01*
X006204Y005531D01*
X006020Y005715D01*
X005757Y005715D01*
X005571Y005528D01*
X005571Y005265D01*
X005669Y005167D01*
X005669Y004321D01*
X005798Y004192D01*
X006093Y003897D01*
X006204Y003897D01*
X006204Y003634D01*
X006286Y003552D01*
X006902Y003552D01*
X006932Y003582D01*
X008027Y003582D01*
X008047Y003602D01*
X008186Y003602D01*
X008372Y003788D01*
X008372Y004052D01*
X008186Y004238D01*
X007922Y004238D01*
X007736Y004052D01*
X007736Y004022D01*
X006984Y004022D01*
X006984Y004212D01*
X007673Y004212D01*
X007850Y004389D01*
X007989Y004389D01*
X008175Y004576D01*
X008175Y004839D01*
X007989Y005026D01*
X007725Y005026D01*
X007539Y004839D01*
X007539Y004701D01*
X007490Y004652D01*
X007325Y004652D01*
X008145Y005472D01*
X008274Y005601D01*
X008274Y008115D01*
X008332Y008173D01*
X008332Y008722D01*
X008250Y008804D01*
X008215Y008804D01*
X008215Y008992D01*
X008086Y009120D01*
X007751Y009455D01*
X006707Y009455D01*
X006033Y008781D01*
X005722Y008781D01*
X005464Y008524D01*
X005464Y008159D01*
X005722Y007901D01*
X006087Y007901D01*
X006344Y008159D01*
X006344Y008470D01*
X006889Y009015D01*
X007569Y009015D01*
X007775Y008809D01*
X007775Y008804D01*
X007740Y008804D01*
X007660Y008724D01*
X007581Y008804D01*
X007071Y008804D01*
X006989Y008722D01*
X006989Y008422D01*
X006250Y007683D01*
X006020Y007683D01*
X005922Y007782D01*
X005658Y007782D01*
X005560Y007683D01*
X004558Y007683D01*
X004776Y007901D01*
X005087Y007901D01*
X005344Y008159D01*
X005344Y008524D01*
X005087Y008781D01*
X004722Y008781D01*
X004464Y008524D01*
X004464Y008213D01*
X003711Y007459D01*
X003582Y007330D01*
X003582Y006932D01*
X003552Y006902D01*
X003552Y006286D01*
X003634Y006204D01*
X003897Y006204D01*
X003897Y005305D01*
X004026Y005177D01*
X004193Y005010D01*
X004193Y004871D01*
X004379Y004685D01*
X004629Y004685D01*
X004576Y004632D01*
X004124Y004632D01*
X003897Y004405D01*
X003897Y003604D01*
X003634Y003604D01*
X003552Y003522D01*
X003552Y002906D01*
X003634Y002824D01*
X004187Y002824D01*
X004026Y002664D01*
X002871Y002664D01*
X002772Y002762D01*
X002509Y002762D01*
X002323Y002576D01*
X002323Y002332D01*
X002214Y002441D01*
X001916Y002565D01*
X001594Y002565D01*
X001296Y002441D01*
X001068Y002214D01*
X000945Y001916D01*
X000945Y001594D01*
X001068Y001296D01*
X001296Y001068D01*
X001594Y000945D01*
X001916Y000945D01*
X002214Y001068D01*
X002441Y001296D01*
X002565Y001594D01*
X002565Y001916D01*
X002456Y002179D01*
X002509Y002126D01*
X002772Y002126D01*
X002871Y002224D01*
X003396Y002224D01*
X004213Y001407D01*
X004213Y001106D01*
X004295Y001024D01*
X004844Y001024D01*
X004877Y001057D01*
X004878Y001054D01*
X004912Y001020D01*
X004953Y000997D01*
X004999Y000984D01*
X005221Y000984D01*
X005221Y001343D01*
X005257Y001343D01*
X005257Y000984D01*
X005479Y000984D01*
X005525Y000997D01*
X005566Y001020D01*
X005600Y001054D01*
X005623Y001095D01*
X005636Y001141D01*
X005636Y001343D01*
X005257Y001343D01*
X005257Y001380D01*
X005221Y001380D01*
X005221Y001738D01*
X004999Y001738D01*
X004953Y001726D01*
X004912Y001702D01*
X004878Y001668D01*
X004877Y001665D01*
X004844Y001698D01*
X004544Y001698D01*
X004018Y002224D01*
X004208Y002224D01*
X004652Y002668D01*
X004652Y002784D01*
X004747Y002784D01*
X004881Y002784D01*
X004926Y002797D01*
X004967Y002820D01*
X004971Y002824D01*
X005152Y002824D01*
X005156Y002820D01*
X005197Y002797D01*
X005243Y002784D01*
X005377Y002784D01*
X005511Y002784D01*
X005556Y002797D01*
X005597Y002820D01*
X005601Y002824D01*
X005787Y002824D01*
X005866Y002746D01*
X005994Y002617D01*
X008539Y002617D01*
X008668Y002746D01*
X008668Y002746D01*
X008865Y002943D01*
X008865Y014051D01*
X008736Y014180D01*
X008736Y014180D01*
X008145Y014770D01*
X006570Y014770D01*
X006084Y015256D01*
X006086Y015258D01*
X006165Y015178D01*
X006675Y015178D01*
X006757Y015260D01*
X006757Y015314D01*
X006840Y015314D01*
X006938Y015216D01*
X007202Y015216D01*
X007388Y015403D01*
X007388Y015666D01*
X007202Y015852D01*
X007388Y015631D02*
X009055Y015631D01*
X009055Y015473D02*
X007388Y015473D01*
X007300Y015314D02*
X009055Y015314D01*
X009055Y015156D02*
X006185Y015156D01*
X006343Y014997D02*
X009055Y014997D01*
X009055Y014839D02*
X006502Y014839D01*
X006479Y014550D02*
X008054Y014550D01*
X008645Y013960D01*
X008645Y003034D01*
X008448Y002837D01*
X006086Y002837D01*
X006007Y002916D01*
X006007Y003214D01*
X006257Y003268D02*
X008425Y003268D01*
X008425Y003427D02*
X006257Y003427D01*
X006253Y003585D02*
X006194Y003585D01*
X006204Y003744D02*
X005531Y003744D01*
X005617Y003902D02*
X006088Y003902D01*
X006184Y004117D02*
X005889Y004412D01*
X005889Y005397D01*
X006089Y005646D02*
X006204Y005646D01*
X006204Y005804D02*
X004337Y005804D01*
X004337Y005646D02*
X005688Y005646D01*
X005571Y005487D02*
X004337Y005487D01*
X004496Y005329D02*
X005571Y005329D01*
X005665Y005170D02*
X005245Y005170D01*
X005101Y005003D02*
X004511Y005003D01*
X004117Y005397D01*
X004117Y006594D01*
X004117Y006971D01*
X004609Y007463D01*
X005790Y007463D01*
X006341Y007463D01*
X007326Y008448D01*
X007326Y008310D01*
X007212Y008023D02*
X007834Y008023D01*
X007834Y007865D02*
X007054Y007865D01*
X006895Y007706D02*
X007834Y007706D01*
X007834Y007548D02*
X006737Y007548D01*
X006578Y007389D02*
X007834Y007389D01*
X007834Y007231D02*
X006007Y007231D01*
X006245Y006914D02*
X007834Y006914D01*
X007834Y007072D02*
X004529Y007072D01*
X004688Y007231D02*
X005573Y007231D01*
X005583Y007706D02*
X004580Y007706D01*
X004739Y007865D02*
X006432Y007865D01*
X006344Y008182D02*
X006749Y008182D01*
X006590Y008023D02*
X006208Y008023D01*
X006344Y008340D02*
X006907Y008340D01*
X006989Y008499D02*
X006373Y008499D01*
X006531Y008657D02*
X006989Y008657D01*
X006848Y008974D02*
X007610Y008974D01*
X007769Y008816D02*
X006690Y008816D01*
X006798Y009235D02*
X007660Y009235D01*
X007995Y008900D01*
X007995Y008448D01*
X008054Y008389D01*
X008054Y005692D01*
X007109Y004747D01*
X006594Y004747D01*
X006594Y004432D02*
X007582Y004432D01*
X007857Y004708D01*
X008136Y004536D02*
X008425Y004536D01*
X008425Y004378D02*
X007838Y004378D01*
X007903Y004219D02*
X007680Y004219D01*
X007745Y004061D02*
X006984Y004061D01*
X006594Y004117D02*
X006184Y004117D01*
X005929Y004061D02*
X005617Y004061D01*
X005617Y004219D02*
X005771Y004219D01*
X005669Y004378D02*
X005617Y004378D01*
X005617Y004536D02*
X005669Y004536D01*
X005669Y004695D02*
X005617Y004695D01*
X005669Y004853D02*
X005562Y004853D01*
X005669Y005012D02*
X005404Y005012D01*
X005101Y005003D02*
X005397Y004708D01*
X005397Y003920D01*
X005062Y003586D01*
X005062Y003214D01*
X005062Y003664D01*
X004806Y003920D01*
X004796Y003910D01*
X004521Y003910D01*
X004432Y003822D01*
X004432Y003214D01*
X004432Y002759D01*
X004117Y002444D01*
X003487Y002444D01*
X004570Y001361D01*
X004609Y001400D01*
X004859Y001683D02*
X004893Y001683D01*
X004869Y001049D02*
X004883Y001049D01*
X005221Y001049D02*
X005257Y001049D01*
X005257Y001208D02*
X005221Y001208D01*
X005257Y001366D02*
X007338Y001366D01*
X007367Y001296D02*
X007244Y001594D01*
X007244Y001916D01*
X007367Y002214D01*
X007595Y002441D01*
X007893Y002565D01*
X008215Y002565D01*
X008513Y002441D01*
X008741Y002214D01*
X008864Y001916D01*
X008864Y001594D01*
X008741Y001296D01*
X008513Y001068D01*
X008215Y000945D01*
X007893Y000945D01*
X007595Y001068D01*
X007367Y001296D01*
X007456Y001208D02*
X005636Y001208D01*
X005595Y001049D02*
X007641Y001049D01*
X007273Y001525D02*
X005636Y001525D01*
X005636Y001582D02*
X005623Y001627D01*
X005600Y001668D01*
X005566Y001702D01*
X005525Y001726D01*
X005479Y001738D01*
X005257Y001738D01*
X005257Y001380D01*
X005636Y001380D01*
X005636Y001582D01*
X005585Y001683D02*
X007244Y001683D01*
X007244Y001842D02*
X004400Y001842D01*
X004242Y002000D02*
X007279Y002000D01*
X007345Y002159D02*
X004083Y002159D01*
X004302Y002317D02*
X007471Y002317D01*
X007678Y002476D02*
X004460Y002476D01*
X004619Y002634D02*
X005978Y002634D01*
X005819Y002793D02*
X005542Y002793D01*
X005377Y002793D02*
X005377Y002793D01*
X005377Y002784D02*
X005377Y003214D01*
X005377Y003214D01*
X005377Y002784D01*
X005377Y002759D02*
X005692Y002444D01*
X004904Y002444D01*
X004747Y002601D01*
X004747Y003214D01*
X004747Y002784D01*
X004747Y003214D01*
X004747Y003214D01*
X004747Y003110D02*
X004747Y003110D01*
X004747Y002951D02*
X004747Y002951D01*
X004747Y002793D02*
X004747Y002793D01*
X004912Y002793D02*
X005212Y002793D01*
X005377Y002759D02*
X005377Y003214D01*
X005377Y003110D02*
X005377Y003110D01*
X005377Y002951D02*
X005377Y002951D01*
X005692Y002444D02*
X005731Y002404D01*
X006715Y002404D01*
X006774Y002345D01*
X006257Y003110D02*
X008409Y003110D01*
X008425Y003585D02*
X008030Y003585D01*
X007936Y003802D02*
X008054Y003920D01*
X007936Y003802D02*
X006594Y003802D01*
X006984Y005012D02*
X007063Y005012D01*
X006984Y005170D02*
X007221Y005170D01*
X007380Y005329D02*
X006984Y005329D01*
X006984Y005487D02*
X007538Y005487D01*
X007697Y005646D02*
X006984Y005646D01*
X006984Y005804D02*
X007834Y005804D01*
X007834Y005963D02*
X006984Y005963D01*
X006984Y006121D02*
X007834Y006121D01*
X007834Y006280D02*
X006250Y006280D01*
X006257Y006438D02*
X007834Y006438D01*
X007834Y006597D02*
X006257Y006597D01*
X006257Y006755D02*
X007834Y006755D01*
X008274Y006755D02*
X008425Y006755D01*
X008425Y006597D02*
X008274Y006597D01*
X008274Y006438D02*
X008425Y006438D01*
X008425Y006280D02*
X008274Y006280D01*
X008274Y006121D02*
X008425Y006121D01*
X008425Y005963D02*
X008274Y005963D01*
X008274Y005804D02*
X008425Y005804D01*
X008425Y005646D02*
X008274Y005646D01*
X008161Y005487D02*
X008425Y005487D01*
X008425Y005329D02*
X008002Y005329D01*
X008003Y005012D02*
X008425Y005012D01*
X008425Y005170D02*
X007844Y005170D01*
X007711Y005012D02*
X007685Y005012D01*
X007553Y004853D02*
X007527Y004853D01*
X007533Y004695D02*
X007368Y004695D01*
X008175Y004695D02*
X008425Y004695D01*
X008425Y004853D02*
X008161Y004853D01*
X008205Y004219D02*
X008425Y004219D01*
X008425Y004061D02*
X008363Y004061D01*
X008372Y003902D02*
X008425Y003902D01*
X008425Y003744D02*
X008327Y003744D01*
X008714Y002793D02*
X009055Y002793D01*
X009055Y002951D02*
X008865Y002951D01*
X008865Y003110D02*
X009055Y003110D01*
X009055Y003268D02*
X008865Y003268D01*
X008865Y003427D02*
X009055Y003427D01*
X009055Y003585D02*
X008865Y003585D01*
X008865Y003744D02*
X009055Y003744D01*
X009055Y003902D02*
X008865Y003902D01*
X008865Y004061D02*
X009055Y004061D01*
X009055Y004219D02*
X008865Y004219D01*
X008865Y004378D02*
X009055Y004378D01*
X009055Y004536D02*
X008865Y004536D01*
X008865Y004695D02*
X009055Y004695D01*
X009055Y004853D02*
X008865Y004853D01*
X008865Y005012D02*
X009055Y005012D01*
X009055Y005170D02*
X008865Y005170D01*
X008865Y005329D02*
X009055Y005329D01*
X009055Y005487D02*
X008865Y005487D01*
X008865Y005646D02*
X009055Y005646D01*
X009055Y005804D02*
X008865Y005804D01*
X008865Y005963D02*
X009055Y005963D01*
X009055Y006121D02*
X008865Y006121D01*
X008865Y006280D02*
X009055Y006280D01*
X009055Y006438D02*
X008865Y006438D01*
X008865Y006597D02*
X009055Y006597D01*
X009055Y006755D02*
X008865Y006755D01*
X008865Y006914D02*
X009055Y006914D01*
X009055Y007072D02*
X008865Y007072D01*
X008865Y007231D02*
X009055Y007231D01*
X009055Y007389D02*
X008865Y007389D01*
X008865Y007548D02*
X009055Y007548D01*
X009055Y007706D02*
X008865Y007706D01*
X008865Y007865D02*
X009055Y007865D01*
X009055Y008023D02*
X008865Y008023D01*
X008865Y008182D02*
X009055Y008182D01*
X009055Y008340D02*
X008865Y008340D01*
X008865Y008499D02*
X009055Y008499D01*
X009055Y008657D02*
X008865Y008657D01*
X008865Y008816D02*
X009055Y008816D01*
X009055Y008974D02*
X008865Y008974D01*
X008865Y009133D02*
X009055Y009133D01*
X009055Y009291D02*
X008865Y009291D01*
X008865Y009450D02*
X009055Y009450D01*
X009055Y009608D02*
X008865Y009608D01*
X008865Y009767D02*
X009055Y009767D01*
X009055Y009925D02*
X008865Y009925D01*
X008865Y010084D02*
X009055Y010084D01*
X009055Y010242D02*
X008865Y010242D01*
X008865Y010401D02*
X009055Y010401D01*
X009055Y010559D02*
X008865Y010559D01*
X008865Y010718D02*
X009055Y010718D01*
X009055Y010876D02*
X008865Y010876D01*
X008865Y011035D02*
X009055Y011035D01*
X009055Y011193D02*
X008865Y011193D01*
X008865Y011352D02*
X009055Y011352D01*
X009055Y011510D02*
X008865Y011510D01*
X008865Y011669D02*
X009055Y011669D01*
X009055Y011827D02*
X008865Y011827D01*
X008865Y011986D02*
X009055Y011986D01*
X009055Y012144D02*
X008865Y012144D01*
X008865Y012303D02*
X009055Y012303D01*
X009055Y012461D02*
X008865Y012461D01*
X008865Y012620D02*
X009055Y012620D01*
X009055Y012778D02*
X008865Y012778D01*
X008865Y012937D02*
X009055Y012937D01*
X009055Y013095D02*
X008865Y013095D01*
X008865Y013254D02*
X009055Y013254D01*
X009055Y013412D02*
X008865Y013412D01*
X008865Y013571D02*
X009055Y013571D01*
X009055Y013729D02*
X008865Y013729D01*
X008865Y013888D02*
X009055Y013888D01*
X009055Y014046D02*
X008865Y014046D01*
X008710Y014205D02*
X009055Y014205D01*
X009055Y014363D02*
X008552Y014363D01*
X008393Y014522D02*
X009055Y014522D01*
X009055Y014680D02*
X008235Y014680D01*
X008088Y014205D02*
X003789Y014205D01*
X003631Y014363D02*
X006355Y014363D01*
X006196Y014522D02*
X003609Y014522D01*
X003609Y014680D02*
X006038Y014680D01*
X005879Y014839D02*
X003609Y014839D01*
X003609Y014997D02*
X005721Y014997D01*
X005562Y015156D02*
X003609Y015156D01*
X003389Y015534D02*
X002739Y015534D01*
X002509Y015314D02*
X000754Y015314D01*
X000754Y015156D02*
X003169Y015156D01*
X003169Y014997D02*
X000754Y014997D01*
X000754Y014839D02*
X003169Y014839D01*
X003169Y014680D02*
X000754Y014680D01*
X000754Y014522D02*
X003169Y014522D01*
X003169Y014363D02*
X000754Y014363D01*
X000754Y014205D02*
X003169Y014205D01*
X003325Y014046D02*
X000754Y014046D01*
X000754Y013888D02*
X003484Y013888D01*
X003642Y013729D02*
X000754Y013729D01*
X000754Y013571D02*
X003801Y013571D01*
X003959Y013412D02*
X000754Y013412D01*
X000754Y013254D02*
X004118Y013254D01*
X004123Y013095D02*
X000754Y013095D01*
X000754Y012937D02*
X003964Y012937D01*
X003838Y012778D02*
X000754Y012778D01*
X000754Y012620D02*
X003838Y012620D01*
X003838Y012461D02*
X000754Y012461D01*
X000754Y012303D02*
X003838Y012303D01*
X003838Y012144D02*
X000754Y012144D01*
X000754Y011986D02*
X003838Y011986D01*
X004058Y011597D02*
X004058Y009495D01*
X003904Y009341D01*
X002928Y009341D01*
X002641Y009629D01*
X002168Y009629D01*
X002149Y009649D01*
X002129Y009629D01*
X001755Y009629D01*
X001656Y009530D01*
X001656Y006578D01*
X001504Y006280D02*
X001286Y006280D01*
X001286Y006438D02*
X001346Y006438D01*
X001338Y006446D02*
X001525Y006260D01*
X001788Y006260D01*
X001974Y006446D01*
X001974Y006709D01*
X001876Y006808D01*
X001876Y006957D01*
X001908Y006949D01*
X002130Y006949D01*
X002130Y007307D01*
X002167Y007307D01*
X002167Y006949D01*
X002389Y006949D01*
X002435Y006961D01*
X002476Y006985D01*
X002509Y007018D01*
X002533Y007059D01*
X002545Y007105D01*
X002545Y007307D01*
X002167Y007307D01*
X002167Y007344D01*
X002545Y007344D01*
X002545Y007546D01*
X002533Y007592D01*
X002509Y007633D01*
X002476Y007667D01*
X002448Y007683D01*
X002505Y007740D01*
X002505Y008250D01*
X002423Y008332D01*
X002369Y008332D01*
X002369Y008446D01*
X002443Y008446D01*
X002525Y008528D01*
X002525Y009116D01*
X002443Y009198D01*
X001876Y009198D01*
X001876Y009272D01*
X002443Y009272D01*
X002525Y009354D01*
X002525Y009409D01*
X002550Y009409D01*
X002837Y009121D01*
X003502Y009121D01*
X003597Y009026D01*
X002617Y008047D01*
X002617Y006767D01*
X002421Y006570D01*
X002421Y005699D01*
X002523Y005597D01*
X001570Y005597D01*
X001286Y005881D01*
X001286Y009931D01*
X001452Y010098D01*
X002200Y010098D01*
X002329Y010227D01*
X003343Y011241D01*
X003644Y011241D01*
X003723Y011321D01*
X003803Y011241D01*
X003838Y011241D01*
X003838Y009781D01*
X003722Y009781D01*
X003502Y009561D01*
X003019Y009561D01*
X002861Y009720D01*
X002732Y009849D01*
X002525Y009849D01*
X002525Y009943D01*
X002443Y010025D01*
X001854Y010025D01*
X001772Y009943D01*
X001772Y009849D01*
X001664Y009849D01*
X001565Y009750D01*
X001436Y009622D01*
X001436Y006808D01*
X001338Y006709D01*
X001338Y006446D01*
X001338Y006597D02*
X001286Y006597D01*
X001286Y006755D02*
X001384Y006755D01*
X001436Y006914D02*
X001286Y006914D01*
X001286Y007072D02*
X001436Y007072D01*
X001436Y007231D02*
X001286Y007231D01*
X001286Y007389D02*
X001436Y007389D01*
X001436Y007548D02*
X001286Y007548D01*
X001286Y007706D02*
X001436Y007706D01*
X001436Y007865D02*
X001286Y007865D01*
X001286Y008023D02*
X001436Y008023D01*
X001436Y008182D02*
X001286Y008182D01*
X001286Y008340D02*
X001436Y008340D01*
X001436Y008499D02*
X001286Y008499D01*
X001286Y008657D02*
X001436Y008657D01*
X001436Y008816D02*
X001286Y008816D01*
X001286Y008974D02*
X001436Y008974D01*
X001436Y009133D02*
X001286Y009133D01*
X001286Y009291D02*
X001436Y009291D01*
X001436Y009450D02*
X001286Y009450D01*
X001286Y009608D02*
X001436Y009608D01*
X001565Y009750D02*
X001565Y009750D01*
X001582Y009767D02*
X001286Y009767D01*
X001286Y009925D02*
X001772Y009925D01*
X002109Y010318D02*
X001361Y010318D01*
X001066Y010023D01*
X001066Y005790D01*
X001479Y005377D01*
X003214Y005377D01*
X003214Y005692D02*
X002739Y005692D01*
X002641Y005790D01*
X002641Y006479D01*
X002837Y006676D01*
X002837Y007956D01*
X003723Y008841D01*
X004404Y008841D01*
X004904Y009341D01*
X004707Y009767D02*
X004278Y009767D01*
X004278Y009925D02*
X008425Y009925D01*
X008425Y009767D02*
X006158Y009767D01*
X006103Y009821D02*
X005924Y009821D01*
X005924Y009361D01*
X006384Y009361D01*
X006384Y009540D01*
X006103Y009821D01*
X005924Y009767D02*
X005884Y009767D01*
X005884Y009821D02*
X005706Y009821D01*
X005424Y009540D01*
X005424Y009361D01*
X005884Y009361D01*
X005884Y009321D01*
X005924Y009321D01*
X005924Y008861D01*
X006103Y008861D01*
X006384Y009143D01*
X006384Y009321D01*
X005924Y009321D01*
X005924Y009361D01*
X005884Y009361D01*
X005884Y009821D01*
X005884Y009608D02*
X005924Y009608D01*
X005924Y009450D02*
X005884Y009450D01*
X005884Y009321D02*
X005424Y009321D01*
X005424Y009143D01*
X005706Y008861D01*
X005884Y008861D01*
X005884Y009321D01*
X005884Y009291D02*
X005924Y009291D01*
X005924Y009133D02*
X005884Y009133D01*
X005884Y008974D02*
X005924Y008974D01*
X006068Y008816D02*
X004690Y008816D01*
X004598Y008657D02*
X004531Y008657D01*
X004464Y008499D02*
X004344Y008499D01*
X004344Y008340D02*
X004464Y008340D01*
X004434Y008182D02*
X004344Y008182D01*
X004275Y008023D02*
X004208Y008023D01*
X004117Y007865D02*
X003739Y007865D01*
X003580Y007706D02*
X003958Y007706D01*
X003800Y007548D02*
X003434Y007548D01*
X003434Y007389D02*
X003641Y007389D01*
X003582Y007231D02*
X003434Y007231D01*
X003434Y007072D02*
X003582Y007072D01*
X003563Y006914D02*
X003434Y006914D01*
X003434Y006755D02*
X003552Y006755D01*
X003552Y006597D02*
X003434Y006597D01*
X003434Y006438D02*
X003552Y006438D01*
X003559Y006280D02*
X003434Y006280D01*
X003604Y006121D02*
X003897Y006121D01*
X003897Y005963D02*
X003604Y005963D01*
X003604Y005804D02*
X003897Y005804D01*
X003897Y005646D02*
X003604Y005646D01*
X003604Y005487D02*
X003897Y005487D01*
X003897Y005329D02*
X003604Y005329D01*
X003604Y005170D02*
X004032Y005170D01*
X004191Y005012D02*
X003604Y005012D01*
X003604Y004853D02*
X004210Y004853D01*
X004369Y004695D02*
X003604Y004695D01*
X003604Y004536D02*
X004028Y004536D01*
X004215Y004412D02*
X004117Y004314D01*
X004117Y003214D01*
X003897Y003744D02*
X003604Y003744D01*
X003604Y003902D02*
X003897Y003902D01*
X003897Y004061D02*
X003604Y004061D01*
X003604Y004219D02*
X003897Y004219D01*
X003897Y004378D02*
X003604Y004378D01*
X003615Y003585D02*
X003556Y003585D01*
X003552Y003427D02*
X000754Y003427D01*
X000754Y003585D02*
X002873Y003585D01*
X002824Y003744D02*
X000754Y003744D01*
X000754Y003902D02*
X002824Y003902D01*
X002824Y004061D02*
X000754Y004061D01*
X000754Y004219D02*
X002824Y004219D01*
X002824Y004378D02*
X000754Y004378D01*
X000754Y004536D02*
X002824Y004536D01*
X002824Y004695D02*
X000754Y004695D01*
X000754Y004853D02*
X002824Y004853D01*
X002824Y005012D02*
X000754Y005012D01*
X000754Y005170D02*
X001375Y005170D01*
X001216Y005329D02*
X000754Y005329D01*
X000754Y005487D02*
X001058Y005487D01*
X000899Y005646D02*
X000754Y005646D01*
X000754Y005804D02*
X000846Y005804D01*
X000846Y005963D02*
X000754Y005963D01*
X000754Y006121D02*
X000846Y006121D01*
X000846Y006280D02*
X000754Y006280D01*
X000754Y006438D02*
X000846Y006438D01*
X000846Y006597D02*
X000754Y006597D01*
X000754Y006755D02*
X000846Y006755D01*
X000846Y006914D02*
X000754Y006914D01*
X000754Y007072D02*
X000846Y007072D01*
X000846Y007231D02*
X000754Y007231D01*
X000754Y007389D02*
X000846Y007389D01*
X000846Y007548D02*
X000754Y007548D01*
X000754Y007706D02*
X000846Y007706D01*
X000846Y007865D02*
X000754Y007865D01*
X000754Y008023D02*
X000846Y008023D01*
X000846Y008182D02*
X000754Y008182D01*
X000754Y008340D02*
X000846Y008340D01*
X000846Y008499D02*
X000754Y008499D01*
X000754Y008657D02*
X000846Y008657D01*
X000846Y008816D02*
X000754Y008816D01*
X000754Y008974D02*
X000846Y008974D01*
X000846Y009133D02*
X000754Y009133D01*
X000754Y009291D02*
X000846Y009291D01*
X000846Y009450D02*
X000754Y009450D01*
X000754Y009608D02*
X000846Y009608D01*
X000846Y009767D02*
X000754Y009767D01*
X000754Y009925D02*
X000846Y009925D01*
X000846Y010084D02*
X000754Y010084D01*
X000754Y010242D02*
X000974Y010242D01*
X001133Y010401D02*
X000754Y010401D01*
X000754Y010559D02*
X002039Y010559D01*
X002109Y010318D02*
X003389Y011597D01*
X002739Y011597D01*
X002519Y011827D02*
X000754Y011827D01*
X000754Y011669D02*
X002421Y011669D01*
X002421Y011510D02*
X000754Y011510D01*
X000754Y011352D02*
X002535Y011352D01*
X002515Y011035D02*
X000754Y011035D01*
X000754Y011193D02*
X002673Y011193D01*
X002820Y010718D02*
X003838Y010718D01*
X003838Y010876D02*
X002979Y010876D01*
X003137Y011035D02*
X003838Y011035D01*
X003838Y011193D02*
X003296Y011193D01*
X003052Y011827D02*
X002959Y011827D01*
X002356Y010876D02*
X000754Y010876D01*
X000754Y010718D02*
X002198Y010718D01*
X002345Y010242D02*
X003838Y010242D01*
X003838Y010084D02*
X001438Y010084D01*
X002149Y008822D02*
X002149Y007995D01*
X002369Y008340D02*
X002911Y008340D01*
X002752Y008182D02*
X002505Y008182D01*
X002505Y008023D02*
X002617Y008023D01*
X002617Y007865D02*
X002505Y007865D01*
X002471Y007706D02*
X002617Y007706D01*
X002617Y007548D02*
X002545Y007548D01*
X002545Y007389D02*
X002617Y007389D01*
X002617Y007231D02*
X002545Y007231D01*
X002536Y007072D02*
X002617Y007072D01*
X002617Y006914D02*
X001876Y006914D01*
X001929Y006755D02*
X002606Y006755D01*
X002447Y006597D02*
X001974Y006597D01*
X001967Y006438D02*
X002421Y006438D01*
X002421Y006280D02*
X001808Y006280D01*
X002149Y006676D02*
X002149Y007326D01*
X002130Y007231D02*
X002167Y007231D01*
X002167Y007072D02*
X002130Y007072D01*
X002421Y006121D02*
X001286Y006121D01*
X001286Y005963D02*
X002421Y005963D01*
X002421Y005804D02*
X001363Y005804D01*
X001521Y005646D02*
X002474Y005646D01*
X003214Y006007D02*
X003214Y007651D01*
X003904Y008341D01*
X003545Y008974D02*
X002525Y008974D01*
X002525Y008816D02*
X003386Y008816D01*
X003228Y008657D02*
X002525Y008657D01*
X002496Y008499D02*
X003069Y008499D01*
X002826Y009133D02*
X002508Y009133D01*
X002462Y009291D02*
X002667Y009291D01*
X002814Y009767D02*
X003707Y009767D01*
X003549Y009608D02*
X002972Y009608D01*
X002525Y009925D02*
X003838Y009925D01*
X003838Y010401D02*
X002503Y010401D01*
X002662Y010559D02*
X003838Y010559D01*
X004278Y010559D02*
X008425Y010559D01*
X008425Y010401D02*
X004278Y010401D01*
X004278Y010242D02*
X008425Y010242D01*
X008425Y010084D02*
X004278Y010084D01*
X004278Y009608D02*
X004549Y009608D01*
X004464Y009450D02*
X004344Y009450D01*
X004344Y009291D02*
X004464Y009291D01*
X004385Y009133D02*
X004318Y009133D01*
X004904Y008341D02*
X003802Y007239D01*
X003802Y006594D01*
X004337Y006121D02*
X006204Y006121D01*
X006204Y005963D02*
X004337Y005963D01*
X005062Y006280D02*
X005062Y006280D01*
X005062Y006438D02*
X005062Y006438D01*
X005062Y006597D02*
X005062Y006597D01*
X005062Y006755D02*
X005062Y006755D01*
X005062Y006914D02*
X005062Y006914D01*
X005208Y008023D02*
X005600Y008023D01*
X005464Y008182D02*
X005344Y008182D01*
X005344Y008340D02*
X005464Y008340D01*
X005464Y008499D02*
X005344Y008499D01*
X005211Y008657D02*
X005598Y008657D01*
X005593Y008974D02*
X005159Y008974D01*
X005318Y009133D02*
X005434Y009133D01*
X005424Y009291D02*
X005344Y009291D01*
X005344Y009450D02*
X005424Y009450D01*
X005492Y009608D02*
X005260Y009608D01*
X005101Y009767D02*
X005651Y009767D01*
X006216Y008974D02*
X006226Y008974D01*
X006375Y009133D02*
X006385Y009133D01*
X006384Y009291D02*
X006543Y009291D01*
X006384Y009450D02*
X006702Y009450D01*
X006798Y009235D02*
X005904Y008341D01*
X005997Y007706D02*
X006273Y007706D01*
X006316Y009608D02*
X008425Y009608D01*
X008425Y009450D02*
X007757Y009450D01*
X007915Y009291D02*
X008425Y009291D01*
X008425Y009133D02*
X008074Y009133D01*
X008086Y009120D02*
X008086Y009120D01*
X008215Y008974D02*
X008425Y008974D01*
X008425Y008816D02*
X008215Y008816D01*
X008332Y008657D02*
X008425Y008657D01*
X008425Y008499D02*
X008332Y008499D01*
X008332Y008340D02*
X008425Y008340D01*
X008425Y008182D02*
X008332Y008182D01*
X008274Y008023D02*
X008425Y008023D01*
X008425Y007865D02*
X008274Y007865D01*
X008274Y007706D02*
X008425Y007706D01*
X008425Y007548D02*
X008274Y007548D01*
X008274Y007389D02*
X008425Y007389D01*
X008425Y007231D02*
X008274Y007231D01*
X008274Y007072D02*
X008425Y007072D01*
X008425Y006914D02*
X008274Y006914D01*
X008425Y010718D02*
X004278Y010718D01*
X004278Y010876D02*
X008425Y010876D01*
X008425Y011035D02*
X004278Y011035D01*
X004278Y011193D02*
X008425Y011193D01*
X008425Y011352D02*
X004395Y011352D01*
X004395Y011510D02*
X008425Y011510D01*
X008425Y011669D02*
X004395Y011669D01*
X004395Y011827D02*
X008425Y011827D01*
X008425Y011986D02*
X004278Y011986D01*
X004278Y012144D02*
X008425Y012144D01*
X008425Y012303D02*
X004278Y012303D01*
X004278Y012461D02*
X008425Y012461D01*
X008425Y012620D02*
X004278Y012620D01*
X004428Y012778D02*
X008425Y012778D01*
X008425Y012937D02*
X007284Y012937D01*
X007388Y013095D02*
X008425Y013095D01*
X008425Y013254D02*
X007388Y013254D01*
X007280Y013412D02*
X008425Y013412D01*
X008425Y013571D02*
X004423Y013571D01*
X004582Y013412D02*
X005414Y013412D01*
X005414Y012937D02*
X004586Y012937D01*
X004511Y013172D02*
X004058Y012719D01*
X004058Y011597D01*
X004511Y013172D02*
X005751Y013172D01*
X006420Y013172D02*
X007070Y013172D01*
X006855Y012937D02*
X006757Y012937D01*
X006757Y013412D02*
X006860Y013412D01*
X006479Y014550D02*
X005751Y015278D01*
X005751Y015534D01*
X005414Y015473D02*
X004454Y015473D01*
X004454Y015631D02*
X005414Y015631D01*
X005414Y015790D02*
X004445Y015790D01*
X004454Y015314D02*
X005414Y015314D01*
X006420Y015534D02*
X007070Y015534D01*
X006875Y015790D02*
X006757Y015790D01*
X006757Y015314D02*
X006840Y015314D01*
X007765Y017533D02*
X005490Y017533D01*
X005653Y017692D02*
X007507Y017692D01*
X007595Y017604D02*
X007893Y017480D01*
X008215Y017480D01*
X008513Y017604D01*
X008741Y017831D01*
X008864Y018129D01*
X008864Y018451D01*
X008741Y018749D01*
X008513Y018977D01*
X008215Y019100D01*
X007893Y019100D01*
X007595Y018977D01*
X007367Y018749D01*
X007244Y018451D01*
X007244Y018129D01*
X007367Y017831D01*
X007595Y017604D01*
X007360Y017850D02*
X005759Y017850D01*
X005822Y018009D02*
X007294Y018009D01*
X007244Y018167D02*
X005854Y018167D01*
X005871Y018326D02*
X007244Y018326D01*
X007258Y018484D02*
X005840Y018484D01*
X005808Y018643D02*
X007323Y018643D01*
X007420Y018801D02*
X005712Y018801D01*
X005606Y018960D02*
X007578Y018960D01*
X008343Y017533D02*
X009055Y017533D01*
X009055Y017375D02*
X005197Y017375D01*
X005384Y019118D02*
X009055Y019118D01*
X009055Y018960D02*
X008530Y018960D01*
X008688Y018801D02*
X009055Y018801D01*
X009055Y018643D02*
X008785Y018643D01*
X008850Y018484D02*
X009055Y018484D01*
X009055Y018326D02*
X008864Y018326D01*
X008864Y018167D02*
X009055Y018167D01*
X009055Y018009D02*
X008814Y018009D01*
X008748Y017850D02*
X009055Y017850D01*
X009055Y017692D02*
X008601Y017692D01*
X009055Y019277D02*
X000754Y019277D01*
X000754Y019291D02*
X009055Y019291D01*
X009055Y000754D01*
X000754Y000754D01*
X000754Y019291D01*
X000754Y017216D02*
X003010Y017216D01*
X002852Y017058D02*
X000754Y017058D01*
X000754Y016899D02*
X002693Y016899D01*
X002535Y016741D02*
X000754Y016741D01*
X000754Y016582D02*
X002416Y016582D01*
X002356Y016424D02*
X000754Y016424D01*
X000754Y016265D02*
X002356Y016265D01*
X002397Y016107D02*
X000754Y016107D01*
X000754Y015948D02*
X002489Y015948D01*
X002545Y015790D02*
X000754Y015790D01*
X000754Y015631D02*
X002421Y015631D01*
X002421Y015473D02*
X000754Y015473D01*
X003389Y015534D02*
X003389Y014294D01*
X004511Y013172D01*
X004265Y013729D02*
X008425Y013729D01*
X008405Y013888D02*
X004106Y013888D01*
X003948Y014046D02*
X008247Y014046D01*
X004076Y015314D02*
X004040Y015314D01*
X004040Y015473D02*
X004076Y015473D01*
X004076Y015631D02*
X004040Y015631D01*
X004040Y015790D02*
X004076Y015790D01*
X004215Y004412D02*
X004806Y004412D01*
X004155Y002793D02*
X000754Y002793D01*
X000754Y002951D02*
X003552Y002951D01*
X003552Y003110D02*
X000754Y003110D01*
X000754Y003268D02*
X003552Y003268D01*
X003487Y002444D02*
X002641Y002444D01*
X002381Y002634D02*
X000754Y002634D01*
X000754Y002476D02*
X001379Y002476D01*
X001172Y002317D02*
X000754Y002317D01*
X000754Y002159D02*
X001045Y002159D01*
X000980Y002000D02*
X000754Y002000D01*
X000754Y001842D02*
X000945Y001842D01*
X000945Y001683D02*
X000754Y001683D01*
X000754Y001525D02*
X000973Y001525D01*
X001039Y001366D02*
X000754Y001366D01*
X000754Y001208D02*
X001157Y001208D01*
X001342Y001049D02*
X000754Y001049D01*
X000754Y000891D02*
X009055Y000891D01*
X009055Y001049D02*
X008467Y001049D01*
X008652Y001208D02*
X009055Y001208D01*
X009055Y001366D02*
X008770Y001366D01*
X008835Y001525D02*
X009055Y001525D01*
X009055Y001683D02*
X008864Y001683D01*
X008864Y001842D02*
X009055Y001842D01*
X009055Y002000D02*
X008829Y002000D01*
X008763Y002159D02*
X009055Y002159D01*
X009055Y002317D02*
X008637Y002317D01*
X008556Y002634D02*
X009055Y002634D01*
X009055Y002476D02*
X008430Y002476D01*
X005257Y001683D02*
X005221Y001683D01*
X005221Y001525D02*
X005257Y001525D01*
X004270Y001049D02*
X002168Y001049D01*
X002353Y001208D02*
X004213Y001208D01*
X004213Y001366D02*
X002470Y001366D01*
X002536Y001525D02*
X004095Y001525D01*
X003937Y001683D02*
X002565Y001683D01*
X002565Y001842D02*
X003778Y001842D01*
X003620Y002000D02*
X002530Y002000D01*
X002476Y002159D02*
X002464Y002159D01*
X002323Y002476D02*
X002131Y002476D01*
X002805Y002159D02*
X003461Y002159D01*
D19*
X002641Y002444D03*
X004511Y005003D03*
X004806Y004412D03*
X005889Y005397D03*
X005790Y007463D03*
X007857Y004708D03*
X008054Y003920D03*
X006774Y002345D03*
X002739Y011597D03*
X002739Y015534D03*
X006873Y016322D03*
X007070Y015534D03*
X007070Y013172D03*
X002149Y006676D03*
X001656Y006578D03*
M02*
