%
M48
M72
T01C0.0236
T02C0.0400
T03C0.0520
T04C0.1260
%
T01
X2641Y2444
X4511Y5003
X4806Y4412
X5889Y5397
X5790Y7463
X7857Y4708
X8054Y3920
X6774Y2345
X2739Y11597
X2739Y15534
X6873Y16322
X7070Y15534
X7070Y13172
X2149Y6676
X1656Y6578
T02
X3904Y8341
X3904Y9341
X4904Y9341
X4904Y8341
X5904Y8341
X5904Y9341
T03
X4904Y18290
T04
X1755Y1755
X8054Y1755
X8054Y18290
X1755Y18290
M30
