G75*
G70*
%OFA0B0*%
%FSLAX24Y24*%
%IPPOS*%
%LPD*%
%AMOC8*
5,1,8,0,0,1.08239X$1,22.5*
%
%ADD10C,0.0000*%
%ADD11R,0.0433X0.0394*%
%ADD12R,0.0220X0.0500*%
%ADD13R,0.0500X0.0220*%
%ADD14R,0.0394X0.0433*%
%ADD15R,0.0472X0.0472*%
D10*
X000574Y000574D02*
X000574Y019471D01*
X009235Y019471D01*
X009235Y000574D01*
X000574Y000574D01*
X001125Y001755D02*
X001127Y001805D01*
X001133Y001855D01*
X001143Y001904D01*
X001157Y001952D01*
X001174Y001999D01*
X001195Y002044D01*
X001220Y002088D01*
X001248Y002129D01*
X001280Y002168D01*
X001314Y002205D01*
X001351Y002239D01*
X001391Y002269D01*
X001433Y002296D01*
X001477Y002320D01*
X001523Y002341D01*
X001570Y002357D01*
X001618Y002370D01*
X001668Y002379D01*
X001717Y002384D01*
X001768Y002385D01*
X001818Y002382D01*
X001867Y002375D01*
X001916Y002364D01*
X001964Y002349D01*
X002010Y002331D01*
X002055Y002309D01*
X002098Y002283D01*
X002139Y002254D01*
X002178Y002222D01*
X002214Y002187D01*
X002246Y002149D01*
X002276Y002109D01*
X002303Y002066D01*
X002326Y002022D01*
X002345Y001976D01*
X002361Y001928D01*
X002373Y001879D01*
X002381Y001830D01*
X002385Y001780D01*
X002385Y001730D01*
X002381Y001680D01*
X002373Y001631D01*
X002361Y001582D01*
X002345Y001534D01*
X002326Y001488D01*
X002303Y001444D01*
X002276Y001401D01*
X002246Y001361D01*
X002214Y001323D01*
X002178Y001288D01*
X002139Y001256D01*
X002098Y001227D01*
X002055Y001201D01*
X002010Y001179D01*
X001964Y001161D01*
X001916Y001146D01*
X001867Y001135D01*
X001818Y001128D01*
X001768Y001125D01*
X001717Y001126D01*
X001668Y001131D01*
X001618Y001140D01*
X001570Y001153D01*
X001523Y001169D01*
X001477Y001190D01*
X001433Y001214D01*
X001391Y001241D01*
X001351Y001271D01*
X001314Y001305D01*
X001280Y001342D01*
X001248Y001381D01*
X001220Y001422D01*
X001195Y001466D01*
X001174Y001511D01*
X001157Y001558D01*
X001143Y001606D01*
X001133Y001655D01*
X001127Y001705D01*
X001125Y001755D01*
X007424Y001755D02*
X007426Y001805D01*
X007432Y001855D01*
X007442Y001904D01*
X007456Y001952D01*
X007473Y001999D01*
X007494Y002044D01*
X007519Y002088D01*
X007547Y002129D01*
X007579Y002168D01*
X007613Y002205D01*
X007650Y002239D01*
X007690Y002269D01*
X007732Y002296D01*
X007776Y002320D01*
X007822Y002341D01*
X007869Y002357D01*
X007917Y002370D01*
X007967Y002379D01*
X008016Y002384D01*
X008067Y002385D01*
X008117Y002382D01*
X008166Y002375D01*
X008215Y002364D01*
X008263Y002349D01*
X008309Y002331D01*
X008354Y002309D01*
X008397Y002283D01*
X008438Y002254D01*
X008477Y002222D01*
X008513Y002187D01*
X008545Y002149D01*
X008575Y002109D01*
X008602Y002066D01*
X008625Y002022D01*
X008644Y001976D01*
X008660Y001928D01*
X008672Y001879D01*
X008680Y001830D01*
X008684Y001780D01*
X008684Y001730D01*
X008680Y001680D01*
X008672Y001631D01*
X008660Y001582D01*
X008644Y001534D01*
X008625Y001488D01*
X008602Y001444D01*
X008575Y001401D01*
X008545Y001361D01*
X008513Y001323D01*
X008477Y001288D01*
X008438Y001256D01*
X008397Y001227D01*
X008354Y001201D01*
X008309Y001179D01*
X008263Y001161D01*
X008215Y001146D01*
X008166Y001135D01*
X008117Y001128D01*
X008067Y001125D01*
X008016Y001126D01*
X007967Y001131D01*
X007917Y001140D01*
X007869Y001153D01*
X007822Y001169D01*
X007776Y001190D01*
X007732Y001214D01*
X007690Y001241D01*
X007650Y001271D01*
X007613Y001305D01*
X007579Y001342D01*
X007547Y001381D01*
X007519Y001422D01*
X007494Y001466D01*
X007473Y001511D01*
X007456Y001558D01*
X007442Y001606D01*
X007432Y001655D01*
X007426Y001705D01*
X007424Y001755D01*
X007424Y018290D02*
X007426Y018340D01*
X007432Y018390D01*
X007442Y018439D01*
X007456Y018487D01*
X007473Y018534D01*
X007494Y018579D01*
X007519Y018623D01*
X007547Y018664D01*
X007579Y018703D01*
X007613Y018740D01*
X007650Y018774D01*
X007690Y018804D01*
X007732Y018831D01*
X007776Y018855D01*
X007822Y018876D01*
X007869Y018892D01*
X007917Y018905D01*
X007967Y018914D01*
X008016Y018919D01*
X008067Y018920D01*
X008117Y018917D01*
X008166Y018910D01*
X008215Y018899D01*
X008263Y018884D01*
X008309Y018866D01*
X008354Y018844D01*
X008397Y018818D01*
X008438Y018789D01*
X008477Y018757D01*
X008513Y018722D01*
X008545Y018684D01*
X008575Y018644D01*
X008602Y018601D01*
X008625Y018557D01*
X008644Y018511D01*
X008660Y018463D01*
X008672Y018414D01*
X008680Y018365D01*
X008684Y018315D01*
X008684Y018265D01*
X008680Y018215D01*
X008672Y018166D01*
X008660Y018117D01*
X008644Y018069D01*
X008625Y018023D01*
X008602Y017979D01*
X008575Y017936D01*
X008545Y017896D01*
X008513Y017858D01*
X008477Y017823D01*
X008438Y017791D01*
X008397Y017762D01*
X008354Y017736D01*
X008309Y017714D01*
X008263Y017696D01*
X008215Y017681D01*
X008166Y017670D01*
X008117Y017663D01*
X008067Y017660D01*
X008016Y017661D01*
X007967Y017666D01*
X007917Y017675D01*
X007869Y017688D01*
X007822Y017704D01*
X007776Y017725D01*
X007732Y017749D01*
X007690Y017776D01*
X007650Y017806D01*
X007613Y017840D01*
X007579Y017877D01*
X007547Y017916D01*
X007519Y017957D01*
X007494Y018001D01*
X007473Y018046D01*
X007456Y018093D01*
X007442Y018141D01*
X007432Y018190D01*
X007426Y018240D01*
X007424Y018290D01*
X001125Y018290D02*
X001127Y018340D01*
X001133Y018390D01*
X001143Y018439D01*
X001157Y018487D01*
X001174Y018534D01*
X001195Y018579D01*
X001220Y018623D01*
X001248Y018664D01*
X001280Y018703D01*
X001314Y018740D01*
X001351Y018774D01*
X001391Y018804D01*
X001433Y018831D01*
X001477Y018855D01*
X001523Y018876D01*
X001570Y018892D01*
X001618Y018905D01*
X001668Y018914D01*
X001717Y018919D01*
X001768Y018920D01*
X001818Y018917D01*
X001867Y018910D01*
X001916Y018899D01*
X001964Y018884D01*
X002010Y018866D01*
X002055Y018844D01*
X002098Y018818D01*
X002139Y018789D01*
X002178Y018757D01*
X002214Y018722D01*
X002246Y018684D01*
X002276Y018644D01*
X002303Y018601D01*
X002326Y018557D01*
X002345Y018511D01*
X002361Y018463D01*
X002373Y018414D01*
X002381Y018365D01*
X002385Y018315D01*
X002385Y018265D01*
X002381Y018215D01*
X002373Y018166D01*
X002361Y018117D01*
X002345Y018069D01*
X002326Y018023D01*
X002303Y017979D01*
X002276Y017936D01*
X002246Y017896D01*
X002214Y017858D01*
X002178Y017823D01*
X002139Y017791D01*
X002098Y017762D01*
X002055Y017736D01*
X002010Y017714D01*
X001964Y017696D01*
X001916Y017681D01*
X001867Y017670D01*
X001818Y017663D01*
X001768Y017660D01*
X001717Y017661D01*
X001668Y017666D01*
X001618Y017675D01*
X001570Y017688D01*
X001523Y017704D01*
X001477Y017725D01*
X001433Y017749D01*
X001391Y017776D01*
X001351Y017806D01*
X001314Y017840D01*
X001280Y017877D01*
X001248Y017916D01*
X001220Y017957D01*
X001195Y018001D01*
X001174Y018046D01*
X001157Y018093D01*
X001143Y018141D01*
X001133Y018190D01*
X001127Y018240D01*
X001125Y018290D01*
D11*
X003389Y015534D03*
X004058Y015534D03*
X002149Y007995D03*
X002149Y007326D03*
X004570Y001361D03*
X005239Y001361D03*
D12*
X005377Y003214D03*
X005062Y003214D03*
X004747Y003214D03*
X004432Y003214D03*
X004117Y003214D03*
X003802Y003214D03*
X003802Y006594D03*
X004117Y006594D03*
X004432Y006594D03*
X004747Y006594D03*
X005062Y006594D03*
X005377Y006594D03*
X005692Y006594D03*
X006007Y006594D03*
X006007Y003214D03*
X005692Y003214D03*
D13*
X006594Y003802D03*
X006594Y004117D03*
X006594Y004432D03*
X006594Y004747D03*
X006594Y005062D03*
X006594Y005377D03*
X006594Y005692D03*
X006594Y006007D03*
X003214Y006007D03*
X003214Y005692D03*
X003214Y005377D03*
X003214Y005062D03*
X003214Y004747D03*
X003214Y004432D03*
X003214Y004117D03*
X003214Y003802D03*
D14*
X003389Y011597D03*
X004058Y011597D03*
X005751Y013172D03*
X006420Y013172D03*
X006420Y015534D03*
X005751Y015534D03*
X007326Y008448D03*
X007995Y008448D03*
D15*
X002149Y008822D03*
X002149Y009649D03*
M02*
